<svg width="505" height="503" viewBox="0 0 505 503" fill="none" xmlns="http://www.w3.org/2000/svg">
<path d="M192.631 166.746C152.893 160.274 110.722 172.409 79.9041 203.151C67.7393 215.286 58.8185 229.039 52.3306 243.601C80.7151 238.343 113.56 237.534 148.838 241.983C160.192 216.095 174.79 190.612 192.631 166.746Z" stroke="black" stroke-width="7" stroke-miterlimit="10" stroke-linecap="round" stroke-linejoin="round"/>
<path d="M301.71 424.414C289.95 436.549 275.758 445.448 261.16 451.92C268.067 422.029 265.215 374.256 262.782 355.244C288.734 344.323 313.874 329.76 338.204 311.962C344.692 352.008 332.527 393.672 301.71 424.414Z" stroke="black" stroke-width="7" stroke-miterlimit="10" stroke-linecap="round" stroke-linejoin="round"/>
<path d="M231.558 294.569C251.022 312.367 271.702 326.929 294.004 339.468" stroke="black" stroke-width="7" stroke-miterlimit="10" stroke-linecap="round" stroke-linejoin="round"/>
<path d="M165.057 210.432C177.222 232.276 192.225 253.31 210.067 272.726" stroke="black" stroke-width="7" stroke-miterlimit="10" stroke-linecap="round" stroke-linejoin="round"/>
<path d="M158.164 346.345C152.082 340.278 152.082 330.57 158.164 324.502L239.263 243.602C245.345 237.535 255.077 237.535 261.16 243.602C267.242 249.67 267.242 259.378 261.16 265.445L180.061 346.345C173.979 352.413 164.247 352.413 158.164 346.345Z" stroke="black" stroke-width="7" stroke-miterlimit="10" stroke-linecap="round" stroke-linejoin="round"/>
<path d="M209.662 316.412C226.287 331.378 243.724 344.322 261.971 355.648C306.17 336.637 349.152 307.917 387.268 269.894M187.765 294.568C172.762 278.388 159.786 260.59 148.433 242.388C167.896 198.297 196.281 155.42 234.397 117.397C271.307 80.7673 312.769 52.6864 355.559 33.5721M421.862 230.862C477.026 160.227 504.277 78.1283 501.212 3.73214C464.196 2.21465 425.348 8.14709 386.929 21.2365" stroke="black" stroke-width="7" stroke-miterlimit="10" stroke-linecap="round" stroke-linejoin="round"/>
<path d="M404.704 15.8668C415.247 33.2604 427.412 49.0359 442.01 63.1935C456.607 77.7555 472.422 89.8905 489.452 100.003" stroke="black" stroke-width="7" stroke-miterlimit="10" stroke-linecap="round" stroke-linejoin="round"/>
<path d="M68.2076 360.602C67.1167 345.481 54.9098 311.823 26.0257 326.489C5.29825 337.013 9.90456 359.514 21.2986 370.401" stroke="black" stroke-width="5" stroke-linecap="round"/>
<path d="M58.7531 380.926C50.7529 370.764 17.4447 377.149 24.9349 405.967C28.979 421.527 59.4804 429.798 73.6622 421.935" stroke="black" stroke-width="5" stroke-linecap="round"/>
<path d="M76.2073 413.588C81.177 411.531 90.8982 410.539 90.0255 423.023C89.1528 435.507 77.7832 442.983 72.2075 445.161C68.0257 446.794 61.7348 444.58 62.0257 434.999" stroke="black" stroke-width="5" stroke-linecap="round"/>
<path d="M100.571 484.354C105.662 489.435 119.262 497.347 132.935 488.346" stroke="black" stroke-width="5" stroke-linecap="round"/>
<path d="M125.298 443.709C121.541 436.572 110.244 426.071 95.1166 441.168C76.2075 460.04 102.753 477.096 111.117 475.282" stroke="black" stroke-width="5" stroke-linecap="round"/>
<path d="M152.571 431.733C163.965 434.394 188.143 445.729 182.753 467.661C178.026 486.895 154.025 483.508 141.662 477.459" stroke="black" stroke-width="5" stroke-linecap="round"/>
<path d="M121.298 362.054C120.426 363.506 94.9952 379.353 82.3891 387.095" stroke="black" stroke-width="5" stroke-linecap="round"/>
<path d="M131.117 377.659L100.208 408.506" stroke="black" stroke-width="5" stroke-linecap="round"/>
<path d="M145.298 388.183L121.662 423.385" stroke="black" stroke-width="5" stroke-linecap="round"/>
<path d="M388.893 157.983C388.893 181.824 369.525 201.16 345.624 201.16C321.722 201.16 302.354 181.824 302.354 157.983C302.354 134.141 321.722 114.805 345.624 114.805C369.525 114.805 388.893 134.141 388.893 157.983Z" stroke="black" stroke-width="5"/>
</svg>
