<svg width="692" height="506" viewBox="0 0 692 506" fill="none" xmlns="http://www.w3.org/2000/svg">
<path d="M117.227 392.255L111.114 351.143L103.995 303.264C102.266 291.637 102.404 281.247 88.2883 282.53C74.173 283.813 69.8638 300.649 45.0557 298.745C31.9628 297.74 19.389 286.482 17.1517 271.434C13.2873 245.443 39.1643 225.567 68.8109 238.586C96.1648 250.598 91.7919 221.187 90.3682 211.612L80.8996 147.928C80.7371 146.836 81.4912 145.818 82.5837 145.656L175.25 131.878C194.116 130.471 185.938 153.359 182.538 167.148C175.738 194.724 192.348 207.169 203.144 209.525C240.458 213.065 243.428 173.474 229.193 160.211C209.73 142.075 212.213 128.48 220.211 127.291L309.395 114.031C310.544 113.86 311.598 114.693 311.721 115.849C312.892 126.903 317.563 154.34 321.591 181.428C326.879 216.994 357.143 200.61 357.245 201.294C357.346 201.978 403.285 181.395 412.893 218.188C419.22 242.414 395.565 262.01 365.583 257.379C341.598 253.675 339.126 262.712 340.245 270.235L353.171 357.174C353.334 358.267 352.58 359.284 351.487 359.446L251.934 374.248C251.244 374.351 250.538 374.075 250.101 373.531C234.546 354.166 244.682 342.766 248.935 325.058C253.983 304.034 242.786 288.815 228.938 286.785C210.831 284.13 181.559 298.024 199.613 332.392C213.534 358.894 216.164 379.566 200.168 381.945L119.499 393.939C118.406 394.101 117.389 393.347 117.227 392.255Z" fill="black"/>
<path d="M391.465 342.134L412.034 258.379C414.002 251.032 419.867 243.725 440.396 256.671C466.057 272.854 495.557 264.293 499.397 239.55C505.228 201.973 454.892 202.569 455.071 201.901C455.25 201.234 420.966 204.217 430.272 169.485C437.873 141.119 447.069 116.559 450.106 107.827" stroke="black" stroke-width="5" stroke-linecap="round"/>
<path d="M450.218 107.397L525.172 127.481C534.297 129.925 553.168 126.069 556.549 91.1985C560.114 54.4288 588.024 62.2211 598.65 69.6433C604.151 73.4482 612.035 85.3912 599.566 102.725C583.98 124.392 584.78 144.872 603.681 149.937L669.534 167.582C670.601 167.868 671.234 168.964 670.948 170.031L609.647 398.81C609.359 399.885 608.278 400.525 607.206 400.228C596.183 397.167 541.031 381.887 530.911 379.804C519.657 377.487 518.34 390.093 520.795 407.132C524.459 432.563 506.898 457.691 475.504 443.197C457.476 434.874 455.069 412.573 468.653 393.16C482.237 373.747 474.859 364.785 466.386 362.514C449.171 357.902 408.96 346.894 391.738 342.513" stroke="black" stroke-width="5" stroke-linecap="round"/>
<path d="M405.528 451.043C409.802 458.465 418.619 474.525 419.698 479.383" stroke="black" stroke-width="5" stroke-linecap="round"/>
<path d="M388.659 455.092C386.41 461.165 385.285 479.248 398.781 503" stroke="black" stroke-width="5" stroke-linecap="round"/>
<path d="M363.018 451.043C354.246 459.14 336.298 478.034 334.678 488.83" stroke="black" stroke-width="5" stroke-linecap="round"/>
<path d="M391.358 54.957C400.13 46.8599 418.079 27.9665 419.698 17.1703" stroke="black" stroke-width="5" stroke-linecap="round"/>
<path d="M365.717 50.9082C367.967 44.8353 369.091 26.7517 355.596 2.99997" stroke="black" stroke-width="5" stroke-linecap="round"/>
<path d="M348.848 54.957C344.575 47.5346 335.758 31.4753 334.678 26.617" stroke="black" stroke-width="5" stroke-linecap="round"/>
</svg>
