<svg width="355" height="198" viewBox="0 0 355 198" fill="none" xmlns="http://www.w3.org/2000/svg">
<g clip-path="url(#clip0_84_418)">
<path d="M4.42273 186.475C6.95355 186.572 6.94898 186.694 9.4798 186.791C12.0107 186.888 12.0032 187.088 14.534 187.185C17.0656 187.282 17.073 187.083 19.6045 187.181C22.1347 187.278 22.1238 187.567 24.654 187.664C27.1863 187.761 27.1999 187.399 29.7323 187.496C32.2664 187.593 32.2614 187.725 34.7955 187.822C37.3296 187.919 37.3154 188.298 39.8495 188.395C40.7761 188.43 41.7114 187.415 41.7276 186.477C41.7738 183.805 41.6176 183.802 41.6638 181.13C41.7099 178.457 41.8733 178.46 41.9194 175.787C41.9656 173.115 42.1415 173.118 42.1876 170.446C42.2338 167.773 42.1397 167.771 42.1859 165.098C42.232 162.426 42.2923 162.427 42.3385 159.754C42.3846 157.081 42.36 157.081 42.4062 154.408C42.4524 151.735 42.3565 151.733 42.4026 149.06C42.4488 146.387 42.1545 146.382 42.2006 143.708C42.2468 141.035 42.2883 141.036 42.3344 138.363C42.3806 135.689 42.7754 135.696 42.8216 133.023C42.8677 130.348 42.3033 130.338 42.3495 127.664C42.3957 124.991 42.7247 124.996 42.7708 122.323C42.817 119.649 42.469 119.643 42.5152 116.969C42.5614 114.295 42.7772 114.299 42.8234 111.625C42.8695 108.95 42.7727 108.949 42.8189 106.274C42.8651 103.601 42.7465 103.599 42.7927 100.927C42.8388 98.2528 43.0655 98.2568 43.1117 95.5829C43.1579 92.9091 42.8661 92.9039 42.9123 90.2301C42.9585 87.5562 43.6361 87.5682 43.6823 84.8943C43.7285 82.2197 43.3576 82.2131 43.4037 79.5386C43.4499 76.8654 43.7748 76.8712 43.8209 74.198C43.8671 71.5226 43.3804 71.514 43.4266 68.8385C43.4728 66.1612 43.6419 66.1642 43.6881 63.4869C43.7344 60.8096 43.7588 60.8101 43.805 58.1328C43.8223 57.1325 42.9658 56.3815 41.981 56.4794C39.1353 56.7625 39.1551 56.9663 36.3094 57.2493C33.463 57.5324 33.4099 56.987 30.5635 57.2701C27.716 57.5533 27.7542 57.9451 24.9068 58.2284C22.0602 58.5115 22.0529 58.4365 19.2064 58.7196C16.3579 59.0029 16.3456 58.8766 13.4972 59.1599C10.6487 59.4432 10.6237 59.1866 7.77524 59.4699C6.94611 59.5524 6.50722 60.6168 6.48339 61.4587C6.40736 64.1446 6.59627 64.15 6.52025 66.8359C6.44426 69.5205 5.93357 69.5058 5.85758 72.1904C5.78155 74.8763 6.25964 74.8902 6.18361 77.5761C6.1076 80.2613 5.66527 80.2485 5.58926 82.9337C5.51324 85.6195 5.43861 85.6173 5.36258 88.3031C5.28657 90.9886 5.59658 90.9976 5.52057 93.6832C5.44453 96.3695 5.0433 96.3579 4.96726 99.0442C4.89124 101.73 5.44818 101.746 5.37216 104.432C5.29612 107.118 5.3679 107.12 5.29186 109.807C5.2158 112.493 4.57192 112.475 4.49587 115.162C4.41983 117.848 5.01966 117.865 4.94362 120.552C4.86758 123.238 4.7962 123.236 4.72016 125.923C4.64411 128.61 4.27719 128.599 4.20113 131.286C4.12507 133.973 4.57093 133.986 4.49487 136.673C4.41886 139.359 3.79167 139.34 3.71565 142.026C3.63961 144.712 3.93356 144.721 3.85751 147.407C3.78147 150.094 3.57647 150.088 3.50042 152.775C3.42438 155.461 3.58784 155.466 3.5118 158.153C3.43573 160.84 3.8513 160.852 3.77523 163.539C3.69914 166.228 3.07583 166.21 2.99974 168.898C2.92367 171.585 3.32584 171.597 3.24978 174.284C3.17365 176.973 2.93645 176.967 2.86033 179.656C2.78421 182.345 2.59272 182.34 2.5166 185.029C2.49063 185.946 3.51543 186.44 4.42273 186.475Z" fill="#F75381"/>
<path d="M105.557 149.148C105.314 146.488 105.358 146.484 105.114 143.824C104.871 141.165 105.044 141.149 104.801 138.491C104.557 135.831 104.342 135.851 104.098 133.192C103.855 130.532 104.284 130.492 104.04 127.831C103.797 125.172 103.183 125.23 102.939 122.57C102.696 119.91 103.215 119.861 102.971 117.201C102.728 114.541 102.692 114.545 102.449 111.885C102.205 109.225 101.761 109.266 101.517 106.606C101.274 103.946 101.541 103.921 101.298 101.261C101.054 98.6001 101.223 98.5843 100.98 95.9235C100.736 93.2633 100.84 93.2536 100.596 90.5935C100.353 87.9325 99.8613 87.9785 99.6177 85.3176C99.3741 82.6563 99.5156 82.643 99.2719 79.9817C99.0284 77.3208 99.1974 77.305 98.9539 74.6441C98.7103 71.9831 98.4966 72.0031 98.253 69.3421C98.0094 66.6808 98.2045 66.6626 97.9608 64.0013C97.7172 61.3396 97.4312 61.3664 97.1875 58.7047C96.944 56.0448 97.2281 56.0182 96.9846 53.3583C96.741 50.6972 97.0314 50.67 96.7878 48.009C96.5442 45.3479 96.0738 45.3919 95.8302 42.7309C95.5866 40.0698 95.7341 40.056 95.4905 37.3949C95.2468 34.7331 94.9492 34.7609 94.7055 32.0991C94.462 29.4388 94.4784 29.4372 94.2349 26.7769C93.9912 24.1142 94.3162 24.0838 94.0724 21.4212C93.8285 18.7567 93.864 18.7533 93.6201 16.0888C93.3762 13.4244 93.161 13.4445 92.9171 10.78C92.8336 9.86854 92.1701 9.13728 91.2675 9.20959C88.8278 9.40504 88.81 9.17739 86.3703 9.37284C83.93 9.56835 83.964 10.0018 81.5236 10.1973C79.0846 10.3927 79.043 9.86179 76.604 10.0572C74.1629 10.2527 74.1953 10.6658 71.7542 10.8613C69.3114 11.057 69.2877 10.7557 66.8449 10.9514C64.4022 11.1471 64.4377 11.6004 61.9949 11.7961C61.1097 11.867 60.6515 12.4271 60.6857 13.324C60.7866 15.9627 60.8502 15.9602 60.951 18.5989C61.0519 21.2381 60.5297 21.2584 60.6306 23.8976C60.7314 26.5363 61.037 26.5243 61.1378 29.163C61.2386 31.8024 61.2754 31.801 61.3763 34.4403C61.477 37.0777 61.2046 37.0884 61.3054 39.7257C61.4062 42.3626 61.2158 42.3701 61.3166 45.007C61.4174 47.645 62.1148 47.6178 62.2156 50.2558C62.3164 52.8946 61.866 52.9122 61.9669 55.551C62.0677 58.1886 62.0581 58.1889 62.1589 60.8264C62.2597 63.4645 62.2039 63.4667 62.3048 66.1048C62.4056 68.744 62.7781 68.7295 62.8789 71.3686C62.9797 74.0066 62.7725 74.0146 62.8733 76.6526C62.9742 79.2918 62.8273 79.2976 62.9282 81.9368C63.029 84.5753 62.9866 84.577 63.0875 87.2155C63.1883 89.8545 63.2333 89.8528 63.3342 92.4918C63.435 95.1307 63.9126 95.112 64.0135 97.7509C64.1143 100.39 63.461 100.416 63.5619 103.056C63.6628 105.695 64.0561 105.679 64.157 108.318C64.2579 110.958 64.2737 110.957 64.3746 113.597C64.4755 116.237 64.4482 116.238 64.5491 118.878C64.65 121.518 64.6812 121.517 64.7821 124.156C64.883 126.796 65.1487 126.786 65.2496 129.426C65.3505 132.066 64.8359 132.086 64.9368 134.726C65.0377 137.366 65.0717 137.365 65.1726 140.006C65.2734 142.644 65.618 142.631 65.7188 145.269C65.8197 147.909 65.4008 147.926 65.5017 150.566C65.6026 153.205 66.0121 153.189 66.113 155.829C66.2139 158.469 66.1535 158.472 66.2544 161.111C66.3553 163.752 66.0282 163.765 66.1291 166.405C66.23 169.045 66.2702 169.043 66.371 171.682C66.4719 174.324 66.842 174.309 66.943 176.951C67.044 179.594 66.4611 179.617 66.5621 182.26C66.6631 184.903 66.6907 184.902 66.7917 187.545C66.8255 188.428 67.859 188.92 68.7327 188.941C71.3596 189.004 71.3618 188.909 73.9888 188.972C76.6165 189.035 76.6072 189.427 79.2349 189.49C81.8619 189.553 81.8641 189.463 84.4911 189.526C87.1189 189.589 87.1213 189.483 89.7491 189.546C92.3773 189.609 92.3726 189.808 95.0008 189.871C97.6286 189.934 97.6326 189.764 100.26 189.827C102.888 189.89 102.886 189.984 105.514 190.047C108.142 190.11 108.145 189.98 110.773 190.043C113.402 190.106 113.396 190.366 116.024 190.429C118.651 190.492 118.652 190.444 121.279 190.507C123.907 190.57 123.906 190.59 126.534 190.653C129.162 190.716 129.17 190.36 131.798 190.423C134.426 190.486 134.418 190.853 137.046 190.916C139.674 190.979 139.678 190.816 142.307 190.879C144.934 190.942 144.929 191.151 147.556 191.214C150.186 191.277 150.182 191.441 152.811 191.504C155.443 191.567 155.459 190.879 158.09 190.942C160.722 191.005 160.721 191.013 163.353 191.076C164.325 191.1 165.401 190.588 165.338 189.607C165.171 187.051 164.562 187.092 164.396 184.536C164.229 181.98 164.573 181.957 164.407 179.402C164.24 176.845 163.982 176.862 163.815 174.306C163.649 171.751 163.567 171.756 163.401 169.201C163.234 166.644 163.585 166.621 163.419 164.064C163.252 161.505 163.158 161.511 162.991 158.952C162.824 156.393 162.693 156.402 162.527 153.843C162.471 152.982 161.964 151.969 161.111 151.944C158.422 151.863 158.41 152.262 155.721 152.181C153.034 152.1 153.035 152.058 150.348 151.977C147.659 151.896 147.65 152.193 144.962 152.113C143.169 152.059 141.377 152.004 139.585 151.949C136.896 151.868 136.899 151.779 134.21 151.698C131.521 151.617 131.526 151.458 128.836 151.378C126.146 151.297 126.157 150.935 123.466 150.854C120.777 150.773 120.772 150.949 118.082 150.868C115.391 150.787 115.398 150.56 112.707 150.48C110.015 150.399 110.015 150.423 107.323 150.343C106.488 150.317 105.634 149.99 105.557 149.148Z" fill="#F75381"/>
<path d="M152.493 21.5446C149.98 21.5446 149.98 21.0108 147.468 21.0108C144.955 21.0108 144.955 21.5384 142.443 21.5384C139.93 21.5384 139.93 21.4582 137.417 21.4582C134.905 21.4582 134.905 21.5618 132.393 21.5618C129.879 21.5618 129.879 21.0344 127.366 21.0344C124.85 21.0344 124.85 21.2743 122.334 21.2743C119.819 21.2743 119.819 21.3177 117.303 21.3177C116.385 21.3177 115.827 22.0018 115.833 22.9301C115.85 25.5594 115.341 25.5628 115.359 28.192C115.376 30.822 115.536 30.8209 115.554 33.4509C115.571 36.0802 115.435 36.0811 115.452 38.7105C115.47 41.3406 115.587 41.3398 115.604 43.9698C115.621 46.6003 115.968 46.598 115.985 49.2285C116.002 51.8586 115.713 51.8605 115.73 54.4906C115.748 57.1207 115.797 57.1204 115.814 59.7505C115.831 62.381 115.811 62.3811 115.828 65.0116C115.846 67.6424 115.699 67.6434 115.716 70.2742C115.728 72.027 115.737 73.7797 115.745 75.5324C115.762 78.1627 116.308 78.159 116.325 80.7892C116.342 83.4195 116.288 83.4198 116.305 86.05C116.323 88.6803 115.777 88.684 115.794 91.3143C115.811 93.9452 116.318 93.9418 116.335 96.5728C116.352 99.2023 116.075 99.2041 116.092 101.834C116.109 104.465 116.189 104.465 116.206 107.097C116.224 109.73 116.357 109.729 116.375 112.363C116.392 114.997 116.227 114.998 116.244 117.631C116.25 118.491 116.923 119.23 117.769 119.31C120.434 119.562 120.416 119.761 123.081 120.013C125.746 120.264 125.781 119.882 128.447 120.134C131.112 120.385 131.068 120.869 133.733 121.121C136.397 121.372 136.436 120.957 139.1 121.208C141.765 121.46 141.729 121.84 144.395 122.092C147.06 122.343 147.072 122.213 149.737 122.464C152.402 122.716 152.398 122.759 155.063 123.011C157.729 123.262 157.717 123.395 160.382 123.647C163.049 123.898 163.102 123.322 165.769 123.574C168.435 123.826 168.431 123.869 171.097 124.121C173.764 124.373 173.767 124.346 176.435 124.598C179.102 124.85 179.073 125.168 181.741 125.42C182.613 125.502 183.73 124.838 183.862 123.962C184.257 121.357 184.082 121.329 184.476 118.724C184.871 116.117 184.537 116.065 184.932 113.459C185.327 110.854 185.606 110.897 186.001 108.293C186.396 105.685 186 105.624 186.395 103.017C186.79 100.408 187.351 100.495 187.746 97.8855C188.142 95.2765 187.692 95.2068 188.087 92.5978C188.23 91.656 187.799 90.4537 186.862 90.3508C184.379 90.0781 184.375 90.1102 181.892 89.8376C179.409 89.5649 179.37 89.9214 176.887 89.6488C174.404 89.3761 174.373 89.6682 171.889 89.3955C169.406 89.1228 169.422 88.9704 166.938 88.6976C164.456 88.4251 164.484 88.1613 162.001 87.8887C159.517 87.6159 159.537 87.4301 157.052 87.1572C154.566 86.8842 154.518 87.3311 152.031 87.058C149.545 86.785 149.574 86.5155 147.088 86.2425C146.159 86.1405 145.384 85.3717 145.514 84.4364C145.868 81.8831 145.814 81.8753 146.169 79.322C146.523 76.7684 146.608 76.7804 146.963 74.2268C147.318 71.6728 147.281 71.6675 147.636 69.1135C147.99 66.5611 147.864 66.5433 148.219 63.9909C148.574 61.4375 148.781 61.4669 149.136 58.9135C149.49 56.36 149.579 56.3726 149.934 53.8192C150.288 51.2657 150.085 51.2369 150.44 48.6834C150.795 46.1293 151.086 46.1706 151.441 43.6164C151.795 41.0637 151.657 41.044 152.011 38.4913C152.366 35.9363 152.644 35.9757 152.999 33.4208C153.354 30.864 153.235 30.8471 153.59 28.2903C153.945 25.7336 153.518 25.6729 153.873 23.1162C154.013 22.1096 153.498 21.5446 152.493 21.5446Z" fill="#F75381"/>
<path d="M233.555 21.2177C230.919 21.3941 230.877 20.7534 228.241 20.9298C225.606 21.1062 225.619 21.3041 222.983 21.4805C220.346 21.6569 220.336 21.5018 217.7 21.6783C215.065 21.8547 215.094 22.2955 212.459 22.4719C209.821 22.6484 209.82 22.6291 207.183 22.8056C204.544 22.9822 204.542 22.9536 201.903 23.1302C199.263 23.3068 199.275 23.4834 196.636 23.66C195.786 23.7169 194.902 24.1562 194.876 25.0172C194.796 27.6748 195.234 27.6883 195.153 30.346C195.073 33.0043 194.674 32.992 194.593 35.6503C194.513 38.3066 194.633 38.3104 194.553 40.9667C194.473 43.6225 194.239 43.6153 194.158 46.2712C194.078 48.9281 194.184 48.9314 194.104 51.5884C194.023 54.2462 194.159 54.2504 194.079 56.9082C193.999 59.5646 193.946 59.563 193.866 62.2195C193.785 64.8765 193.657 64.8725 193.577 67.5296C193.496 70.1877 193.67 70.1931 193.59 72.8512C193.509 75.5081 193.678 75.5133 193.598 78.1702C193.517 80.8284 193.654 80.8327 193.574 83.4909C193.493 86.1483 193.313 86.1427 193.232 88.8002C193.152 91.4582 192.914 91.4508 192.833 94.1088C192.753 96.7667 193.234 96.7815 193.154 99.4394C193.073 102.098 192.963 102.095 192.883 104.753C192.803 107.411 192.912 107.414 192.832 110.072C192.751 112.731 192.205 112.714 192.125 115.373C192.044 118.032 192.192 118.036 192.112 120.696C192.031 123.354 192.089 123.356 192.009 126.015C191.928 128.673 192.031 128.677 191.95 131.335C191.87 133.994 191.891 133.995 191.81 136.654C191.73 139.313 191.892 139.319 191.812 141.978C191.731 144.636 191.479 144.628 191.399 147.286C191.318 149.944 191.642 149.954 191.561 152.613C191.481 155.272 191.033 155.258 190.953 157.917C190.872 160.576 190.675 160.57 190.595 163.229C190.514 165.888 190.63 165.892 190.55 168.551C190.469 171.209 190.317 171.205 190.237 173.863C190.156 176.523 190.457 176.533 190.376 179.193C190.295 181.855 190.639 181.866 190.558 184.528C190.477 187.19 189.923 187.173 189.842 189.835C189.815 190.734 190.753 191.312 191.64 191.374C194.331 191.56 194.316 191.78 197.006 191.966C199.696 192.153 199.685 192.314 202.375 192.501C205.066 192.687 205.091 192.311 207.782 192.498C210.473 192.685 210.449 193.029 213.141 193.216C215.831 193.403 215.847 193.167 218.538 193.354C221.229 193.541 221.245 193.303 223.935 193.49C226.626 193.677 226.585 194.286 229.276 194.473C231.967 194.66 231.981 194.455 234.673 194.642C237.362 194.829 237.357 194.907 240.047 195.094C242.737 195.28 242.751 195.077 245.442 195.264C248.133 195.45 248.14 195.341 250.831 195.527C253.522 195.714 253.511 195.875 256.202 196.062C258.893 196.248 258.873 196.547 261.565 196.734C264.257 196.921 264.265 196.802 266.958 196.989C269.649 197.176 269.68 196.727 272.371 196.913C275.065 197.1 275.038 197.5 277.731 197.687C280.425 197.874 280.429 197.81 283.122 197.996C284.022 198.059 284.936 197.306 285.015 196.398C285.229 193.923 285.438 193.942 285.652 191.468C285.867 188.993 285.293 188.942 285.507 186.467C285.721 183.994 285.737 183.995 285.951 181.522C286.165 179.046 286.584 179.083 286.798 176.608C287.013 174.13 286.51 174.086 286.724 171.608C286.939 169.131 287.403 169.172 287.618 166.695C287.698 165.772 286.869 164.882 285.956 164.805C283.348 164.585 283.365 164.378 280.758 164.157C278.152 163.937 278.113 164.399 275.507 164.179C272.9 163.958 272.94 163.477 270.333 163.257C267.726 163.036 267.718 163.131 265.111 162.911C262.504 162.691 262.459 163.238 259.852 163.018C257.244 162.798 257.274 162.436 254.666 162.216C252.059 161.995 252.062 161.963 249.456 161.743C246.847 161.522 246.823 161.812 244.215 161.591C241.604 161.371 241.631 161.041 239.021 160.82C236.41 160.6 236.426 160.409 233.816 160.189C232.944 160.115 232.455 159.645 232.475 158.761C232.535 156.041 232.393 156.038 232.453 153.318C232.513 150.597 232.157 150.589 232.217 147.868C232.278 145.146 232.627 145.154 232.687 142.433C232.748 139.712 232.801 139.713 232.862 136.993C232.922 134.271 232.878 134.27 232.938 131.548C232.999 128.827 233.142 128.83 233.202 126.109C233.263 123.388 232.842 123.378 232.902 120.657C232.963 117.935 232.833 117.932 232.893 115.211C232.954 112.489 233.063 112.491 233.124 109.769C233.184 107.047 233.22 107.048 233.281 104.327C233.341 101.604 233.749 101.614 233.81 98.8913C233.87 96.1686 233.731 96.1654 233.791 93.4427C233.852 90.7204 233.896 90.7214 233.956 87.9991C234.017 85.2768 233.953 85.2753 234.014 82.5529C234.074 79.8303 234.143 79.8318 234.204 77.1092C234.264 74.3861 233.894 74.3777 233.955 71.6546C234.015 68.9333 234.123 68.9358 234.184 66.2145C234.244 63.492 234.303 63.4934 234.364 60.7709C234.424 58.0485 234.655 58.0537 234.716 55.3313C234.776 52.6088 234.884 52.6112 234.944 49.8887C235.005 47.1655 234.459 47.1531 234.519 44.4299C234.58 41.7058 234.852 41.712 234.913 38.9878C234.973 36.2645 234.966 36.2644 235.027 33.5411C235.087 30.8159 235.456 30.8243 235.517 28.0992C235.577 25.374 235.523 25.3728 235.583 22.6476C235.605 21.6655 234.524 21.1528 233.555 21.2177Z" fill="#F75381"/>
<path d="M352.985 50.9452C350.423 50.6091 350.427 50.5804 347.864 50.2443C345.303 49.9084 345.288 50.0252 342.728 49.6894C340.164 49.3532 340.195 49.1118 337.632 48.7756C335.067 48.4392 335.073 48.3929 332.508 48.0565C329.943 47.7201 329.886 48.1641 327.321 47.8277C326.324 47.6969 325.818 48.2147 325.83 49.2311C325.844 50.4797 325.806 52.2998 325.77 54.5391C325.744 56.109 325.505 57.8886 325.428 59.833C325.363 61.4882 325.264 63.2642 325.146 65.1286C325.039 66.8228 324.63 68.5691 324.469 70.391C324.317 72.1062 324.106 73.8595 323.897 75.6509C323.696 77.3801 323.454 79.1277 323.191 80.8951C322.933 82.632 323.104 84.4583 322.78 86.2013C322.456 87.9404 321.618 89.5721 321.221 91.2868C320.82 93.0224 320.384 94.7247 319.9 96.404C319.404 98.127 319.179 99.911 318.587 101.541C317.972 103.239 317.383 104.923 316.656 106.483C315.887 108.129 314.917 109.625 314.013 111.074C313.048 112.621 311.78 113.844 310.648 115.111C309.44 116.462 308.299 117.766 306.886 118.734C305.434 119.73 303.943 120.683 302.256 121.203C300.646 121.699 298.89 121.623 297.051 121.622C295.118 121.62 293.339 121.674 291.738 121.231C289.929 120.731 288.182 120.132 286.761 119.138C285.298 118.115 284.381 116.472 283.288 115.006C282.251 113.616 281.113 112.219 280.374 110.5C279.69 108.91 279.061 107.199 278.601 105.384C278.173 103.693 277.912 101.891 277.657 100.051C277.414 98.3067 277.514 96.485 277.407 94.6461C277.304 92.8731 277.042 91.0773 277.047 89.2504C277.051 87.4601 277.287 85.6613 277.378 83.8513C277.469 82.0487 277.296 80.2235 277.458 78.4329C277.621 76.62 278.272 74.8747 278.491 73.1067C278.718 71.282 278.467 69.421 278.735 67.6794C279.018 65.8371 279.367 64.0556 279.676 62.3475C280.014 60.4736 280.568 58.7337 280.909 57.075C281.309 55.1313 281.648 53.3441 282.008 51.7795C282.52 49.5613 283.254 47.8459 283.575 46.6088C283.835 45.6056 282.793 44.8582 281.771 44.7699C279.792 44.5991 277.814 44.4263 275.836 44.2516C272.87 43.9954 272.868 44.0222 269.901 43.766C266.933 43.5096 266.992 42.8101 264.023 42.5537C261.055 42.2973 261.032 42.5699 258.063 42.3136C257.28 42.2459 256.251 42.7235 256.028 43.486C255.707 44.5844 255.67 46.4752 255.08 48.7719C254.693 50.2825 253.892 51.934 253.447 53.8745C253.077 55.4867 252.868 57.2767 252.487 59.1412C252.149 60.8032 251.928 62.5799 251.601 64.4121C251.299 66.1071 251.003 67.8665 250.727 69.6837C250.465 71.4028 249.954 73.1358 249.729 74.9447C249.512 76.6826 249.67 78.4977 249.498 80.3011C249.331 82.0542 248.811 83.8046 248.697 85.6039C248.585 87.3693 248.647 89.1651 248.596 90.9602C248.546 92.7351 248.602 94.5228 248.62 96.3124C248.639 98.0936 248.502 99.8889 248.598 101.671C248.695 103.454 249.221 105.203 249.405 106.973C249.589 108.754 249.709 110.531 249.991 112.283C250.276 114.054 250.653 115.791 251.048 117.518C251.448 119.268 251.856 120.998 252.378 122.688C252.908 124.403 253.431 126.106 254.098 127.744C254.774 129.404 255.451 131.058 256.278 132.622C257.113 134.201 258.262 135.573 259.263 137.037C260.266 138.503 260.942 140.244 262.122 141.577C263.29 142.896 264.65 144.092 266.003 145.264C267.323 146.408 268.895 147.279 270.401 148.268C271.847 149.218 273.315 150.222 274.943 151.015C276.489 151.767 278.148 152.398 279.866 152.997C281.482 153.56 283.248 153.768 285.023 154.185C286.686 154.575 288.324 155.441 290.132 155.695C291.823 155.932 293.606 156.043 295.429 156.154C297.283 156.266 299.087 155.837 300.828 155.789C302.682 155.739 304.45 155.593 306.179 155.371C308.014 155.135 309.894 155.387 311.594 154.971C313.383 154.533 315.119 153.925 316.765 153.301C318.478 152.652 319.919 151.447 321.484 150.613C323.091 149.756 324.829 149.147 326.287 148.113C327.764 147.065 328.809 145.491 330.14 144.279C331.475 143.064 332.995 142.058 334.191 140.697C335.379 139.344 336.613 138.004 337.671 136.526C338.718 135.063 339.701 133.524 340.628 131.956C341.543 130.406 342.157 128.673 342.962 127.038C343.758 125.42 344.354 123.712 345.049 122.028C345.738 120.357 346.336 118.662 346.932 116.942C347.524 115.23 348.564 113.662 349.07 111.917C349.577 110.173 350.161 108.436 350.587 106.675C351.016 104.903 351.145 103.061 351.499 101.288C351.858 99.4949 352.092 97.6886 352.381 95.9105C352.676 94.098 353.321 92.3504 353.551 90.5717C353.787 88.7408 353.332 86.8555 353.507 85.0796C353.69 83.2309 354.264 81.4572 354.389 79.6895C354.52 77.8201 354.792 76.007 354.869 74.2534C354.952 72.357 354.965 70.5282 354.997 68.7989C355.033 66.8602 354.741 65.033 354.73 63.3478C354.716 61.3172 354.851 59.4833 354.798 57.8946C354.717 55.4771 354.28 53.6371 354.202 52.4788C354.148 51.6831 353.768 51.0478 352.985 50.9452Z" fill="#F75381"/>
<path d="M13.3801 1.74445C13.1447 4.60684 13.2939 4.61938 13.0584 7.48178C12.8228 10.3461 12.3172 10.3036 12.0816 13.168C11.846 16.0324 11.8215 16.0303 11.5859 18.8947C11.5565 19.2523 11.6811 19.5635 11.4468 19.8331C9.57109 21.9905 9.79444 22.189 7.91875 24.3464C6.04177 26.5053 6.09606 26.5535 4.21908 28.7124C2.34211 30.8713 2.35224 30.8803 0.475262 33.0392C-0.422292 34.0715 -0.00335843 35.5423 1.35155 35.6562C4.183 35.8942 4.20217 35.6611 7.03363 35.8991C9.86703 36.1373 9.86222 36.1957 12.6956 36.4339C15.529 36.6721 15.4997 37.0289 18.3331 37.2671C18.6868 37.2968 18.8641 37.4156 19.1308 37.6525C21.2648 39.5487 21.2331 39.5852 23.3672 41.4814C25.5028 43.3789 25.5332 43.3438 27.6688 45.2413C29.8044 47.1388 29.9271 46.9976 32.0626 48.8951C33.0838 49.8025 34.8696 49.094 34.9822 47.7243C35.2177 44.8619 35.0787 44.8502 35.3141 41.9878C35.5498 39.1235 35.6593 39.1327 35.895 36.2683C36.1306 33.404 36.2179 33.4113 36.4535 30.5469C36.483 30.1893 36.3035 29.7103 36.5379 29.4407C38.4136 27.2833 38.4711 27.3344 40.3468 25.1769C42.2237 23.018 42.0951 22.9038 43.9721 20.7449C45.8491 18.586 46.3192 19.0037 48.1962 16.8448C49.0938 15.8124 48.1796 14.0498 46.8247 13.9359C43.9932 13.6979 44.0045 13.5602 41.1731 13.3222C38.3397 13.084 38.3565 12.8794 35.5231 12.6412C32.6897 12.403 32.682 12.4966 29.8486 12.2584C29.4948 12.2287 29.1734 12.211 28.9068 11.9741C26.7727 10.0779 26.6942 10.1681 24.5601 8.27195C22.4246 6.37445 22.6232 6.14599 20.4876 4.2485C18.3521 2.351 18.4309 2.26029 16.2954 0.362794C15.2742 -0.544567 13.4928 0.374737 13.3801 1.74445Z" fill="#F9A49E"/>
<path d="M344.982 172.728C344.836 170.444 344.406 170.472 344.26 168.188C344.114 165.903 344.025 165.909 343.879 163.624C343.733 161.338 343.83 161.332 343.685 159.047C343.597 157.675 342.255 157.117 341.218 158.005C339.49 159.484 339.211 159.151 337.484 160.63C335.755 162.109 335.731 162.081 334.002 163.561C332.273 165.04 332.631 165.468 330.902 166.947C330.631 167.179 330.117 167.027 329.763 167.05C327.504 167.197 327.487 166.944 325.228 167.091C322.968 167.238 322.966 167.209 320.705 167.356C318.445 167.503 318.469 167.886 316.208 168.033C314.852 168.122 314.172 169.721 315.051 170.77C316.513 172.517 316.594 172.448 318.057 174.194C319.52 175.942 319.279 176.148 320.743 177.896C322.207 179.644 322.505 179.388 323.969 181.136C324.198 181.41 324.073 181.878 324.096 182.236C324.241 184.52 324.227 184.521 324.373 186.805C324.518 189.09 324.403 189.098 324.549 191.383C324.695 193.668 324.84 193.659 324.986 195.944C325.073 197.316 326.91 198.155 327.948 197.267C329.676 195.789 329.51 195.59 331.237 194.112C332.966 192.632 333.148 192.849 334.877 191.37C336.606 189.89 336.391 189.633 338.12 188.154C338.391 187.922 338.779 187.641 339.134 187.618C341.393 187.471 341.423 187.946 343.682 187.799C345.943 187.652 345.942 187.634 348.202 187.486C350.463 187.339 350.447 187.097 352.708 186.95C354.065 186.862 354.923 185.101 354.044 184.052C352.582 182.305 352.367 182.488 350.904 180.742C349.441 178.994 349.311 179.105 347.848 177.357C346.384 175.609 346.447 175.555 344.984 173.807C344.754 173.533 345.004 173.086 344.982 172.728Z" fill="#F9A49E"/>
</g>
<defs>
<clipPath id="clip0_84_418">
<rect width="355" height="198" fill="white"/>
</clipPath>
</defs>
</svg>
