<?xml version="1.0" encoding="utf-8"?>
<!-- Generator: Adobe Illustrator 28.3.0, SVG Export Plug-In . SVG Version: 6.00 Build 0)  -->
<svg version="1.1" id="Layer_1" xmlns="http://www.w3.org/2000/svg" xmlns:xlink="http://www.w3.org/1999/xlink" x="0px" y="0px"
	 viewBox="0 0 355 198" style="enable-background:new 0 0 355 198;" xml:space="preserve">
<style type="text/css">
	.st0{clip-path:url(#SVGID_00000131330818275902034620000009399832654024364476_);}
	.st1{fill:#FFFFFF;}
</style>
<g>
	<defs>
		<rect id="SVGID_1_" width="355" height="198"/>
	</defs>
	<clipPath id="SVGID_00000158029087348942607240000008061297955690702759_">
		<use xlink:href="#SVGID_1_"  style="overflow:visible;"/>
	</clipPath>
	<g style="clip-path:url(#SVGID_00000158029087348942607240000008061297955690702759_);">
		<path class="st1" d="M4.4,186.5c2.5,0.1,2.5,0.2,5.1,0.3c2.5,0.1,2.5,0.3,5.1,0.4c2.5,0.1,2.5-0.1,5.1,0c2.5,0.1,2.5,0.4,5,0.5
			s2.5-0.3,5.1-0.2c2.5,0.1,2.5,0.2,5.1,0.3c2.5,0.1,2.5,0.5,5.1,0.6c0.9,0,1.9-1,1.9-1.9c0-2.7-0.1-2.7-0.1-5.3
			c0-2.7,0.2-2.7,0.3-5.3c0-2.7,0.2-2.7,0.3-5.3c0-2.7,0-2.7,0-5.3c0-2.7,0.1-2.7,0.2-5.3c0-2.7,0-2.7,0.1-5.3c0-2.7,0-2.7,0-5.3
			c0-2.7-0.2-2.7-0.2-5.4s0.1-2.7,0.1-5.3c0-2.7,0.4-2.7,0.5-5.3c0-2.7-0.5-2.7-0.5-5.4c0-2.7,0.4-2.7,0.4-5.3
			c0-2.7-0.3-2.7-0.3-5.4c0-2.7,0.3-2.7,0.3-5.3c0-2.7-0.1-2.7,0-5.4c0-2.7-0.1-2.7,0-5.3c0-2.7,0.3-2.7,0.3-5.3
			c0-2.7-0.2-2.7-0.2-5.4c0-2.7,0.7-2.7,0.8-5.3c0-2.7-0.3-2.7-0.3-5.4c0-2.7,0.4-2.7,0.4-5.3c0-2.7-0.4-2.7-0.4-5.4
			c0-2.7,0.2-2.7,0.3-5.4c0-2.7,0.1-2.7,0.1-5.4c0-1-0.8-1.8-1.8-1.7c-2.8,0.3-2.8,0.5-5.7,0.8c-2.8,0.3-2.9-0.3-5.7,0
			s-2.8,0.7-5.7,1c-2.8,0.3-2.9,0.2-5.7,0.5s-2.9,0.2-5.7,0.4c-2.8,0.3-2.9,0-5.7,0.3c-0.8,0.1-1.3,1.1-1.3,2
			c-0.1,2.7,0.1,2.7,0,5.4S6.1,69.8,6,72.5c-0.1,2.7,0.4,2.7,0.3,5.4c-0.1,2.7-0.5,2.7-0.6,5.4C5.6,86,5.5,86,5.5,88.7
			c-0.2,2.3,0.1,2.3,0,5C5.4,96.4,5,96.4,5,99c-0.1,2.7,0.5,2.7,0.4,5.4c-0.1,2.7,0,2.7-0.1,5.4c-0.1,2.7-0.7,2.7-0.8,5.4
			c-0.1,2.7,0.5,2.7,0.4,5.4c-0.1,2.7-0.1,2.7-0.2,5.4s-0.4,2.7-0.5,5.4s0.4,2.7,0.3,5.4s-0.7,2.7-0.8,5.4s0.2,2.7,0.1,5.4
			c-0.1,2.7-0.3,2.7-0.4,5.4c-0.1,2.7,0.1,2.7,0,5.4s0.3,2.7,0.3,5.4c-0.1,2.7-0.7,2.7-0.8,5.4s0.3,2.7,0.3,5.4
			c-0.1,2.7-0.3,2.7-0.4,5.4c-0.1,2.7-0.3,2.7-0.3,5.4C2.5,185.9,3.5,186.4,4.4,186.5z"/>
		<path class="st1" d="M105.6,149.1c-0.2-2.7-0.2-2.7-0.4-5.3c-0.2-2.7-0.1-2.7-0.3-5.3c-0.2-2.7-0.5-2.6-0.7-5.3s0.2-2.7-0.1-5.4
			c-0.2-2.7-0.9-2.6-1.1-5.3c-0.2-2.7,0.3-2.7,0-5.4c-0.2-2.7-0.3-2.7-0.5-5.3c-0.2-2.7-0.7-2.6-0.9-5.3c-0.2-2.7,0-2.7-0.2-5.3
			c-0.2-2.7-0.1-2.7-0.3-5.3c-0.2-2.7-0.1-2.7-0.4-5.3c-0.2-2.7-0.7-2.6-1-5.3c-0.2-2.7-0.1-2.7-0.3-5.3c-0.2-2.7-0.1-2.7-0.3-5.3
			c-0.2-2.7-0.5-2.6-0.7-5.3c-0.2-2.7,0-2.7-0.3-5.3c-0.2-2.7-0.5-2.6-0.8-5.3c-0.2-2.7,0-2.7-0.2-5.3c-0.2-2.7,0-2.7-0.2-5.3
			c-0.2-2.7-0.7-2.6-1-5.3c-0.2-2.7-0.1-2.7-0.3-5.3c-0.2-2.7-0.5-2.6-0.8-5.3c-0.2-2.7-0.2-2.7-0.5-5.3c-0.2-2.7,0.1-2.7-0.2-5.4
			c-0.2-2.7-0.2-2.7-0.5-5.3c-0.2-2.7-0.5-2.6-0.7-5.3c-0.1-0.9-0.7-1.6-1.6-1.6c-2.4,0.2-2.5,0-4.9,0.2s-2.4,0.6-4.8,0.8
			s-2.5-0.3-4.9-0.1s-2.4,0.6-4.8,0.8S69.4,11,67,11.2c-2.4,0.2-2.4,0.6-4.9,0.8c-0.9,0.1-1.3,0.6-1.3,1.5c0.1,2.6,0.2,2.6,0.3,5.3
			c0.1,2.6-0.4,2.7-0.3,5.3c0.1,2.6,0.4,2.6,0.5,5.3c0.1,2.6,0.1,2.6,0.2,5.3c0.1,2.6-0.2,2.6-0.1,5.3c0.1,2.6-0.1,2.6,0,5.3
			c0.1,2.6,0.8,2.6,0.9,5.2c0.1,2.6-0.3,2.7-0.2,5.3s0.1,2.6,0.2,5.3c0.1,2.6,0,2.6,0.1,5.3c0.1,2.6,0.5,2.6,0.6,5.3
			c0.1,2.6-0.1,2.6,0,5.3c0.1,2.6,0,2.6,0.1,5.3c0.1,2.6,0.1,2.6,0.2,5.3c0.1,2.6,0.1,2.6,0.2,5.3c0.1,2.6,0.6,2.6,0.7,5.3
			c0.1,2.6-0.6,2.7-0.5,5.3c0.1,2.6,0.5,2.6,0.6,5.3c0.1,2.6,0.1,2.6,0.2,5.3c0.1,2.6,0.1,2.6,0.2,5.3c0.1,2.6,0.1,2.6,0.2,5.3
			c0.1,2.6,0.4,2.6,0.5,5.3c0.1,2.6-0.4,2.7-0.3,5.3s0.1,2.6,0.2,5.3c0.1,2.6,0.4,2.6,0.5,5.3c0.1,2.6-0.3,2.7-0.2,5.3
			c0.1,2.6,0.5,2.6,0.6,5.3s0,2.6,0.1,5.3c0.1,2.6-0.2,2.7-0.1,5.3s0.1,2.6,0.2,5.3c0.1,2.6,0.5,2.6,0.6,5.3
			c0.1,2.6-0.5,2.7-0.4,5.3s0.1,2.6,0.2,5.3c0,0.9,1.1,1.4,1.9,1.4c2.6,0.1,2.6,0,5.3,0c2.6,0.1,2.6,0.5,5.2,0.5
			c2.6,0.1,2.6,0,5.3,0c2.6,0.1,2.6,0,5.3,0c2.6,0.1,2.6,0.3,5.3,0.3c2.6,0.1,2.6-0.1,5.3,0c2.6,0.1,2.6,0.2,5.3,0.2s2.6-0.1,5.3,0
			c2.6,0.1,2.6,0.3,5.3,0.4c2.6,0.1,2.6,0,5.3,0.1c2.6,0.1,2.6,0.1,5.3,0.1c2.6,0.1,2.6-0.3,5.3-0.2c2.6,0.1,2.6,0.4,5.2,0.5
			c2.6,0.1,2.6-0.1,5.3,0c2.6,0.1,2.6,0.3,5.2,0.3c2.6,0.1,2.6,0.2,5.3,0.3c2.6,0.1,2.6-0.6,5.3-0.6c2.6,0.1,2.6,0.1,5.3,0.1
			c1,0,2-0.5,2-1.5c-0.2-2.6-0.8-2.5-0.9-5.1c-0.2-2.6,0.2-2.6,0-5.1c-0.2-2.6-0.4-2.5-0.6-5.1c-0.2-2.6-0.2-2.6-0.4-5.1
			c-0.2-2.6,0.2-2.6,0-5.1c-0.2-2.6-0.3-2.6-0.4-5.1c-0.2-2.6-0.3-2.6-0.5-5.1c-0.1-0.9-0.6-1.9-1.4-1.9c-2.7-0.1-2.7,0.3-5.4,0.2
			s-2.7-0.1-5.4-0.2c-2.7-0.1-2.7,0.2-5.4,0.1c-1.8-0.1-3.6-0.1-5.4-0.2c-2.7-0.1-2.7-0.2-5.4-0.3s-2.7-0.2-5.4-0.3
			s-2.7-0.4-5.4-0.5c-2.7-0.1-2.7,0.1-5.4,0c-2.7-0.1-2.7-0.3-5.4-0.4c-2.7-0.1-2.7-0.1-5.4-0.1C106.5,150.3,105.6,150,105.6,149.1z
			"/>
		<path class="st1" d="M152.5,21.5c-2.5,0-2.5-0.5-5-0.5s-2.5,0.5-5,0.5s-2.5-0.1-5-0.1s-2.5,0.1-5,0.1s-2.5-0.5-5-0.5
			s-2.5,0.2-5,0.2s-2.5,0-5,0c-0.9,0-1.5,0.7-1.5,1.6c0,2.6-0.5,2.6-0.5,5.3c0,2.6,0.2,2.6,0.2,5.3c0,2.6-0.1,2.6-0.1,5.3
			c0,2.6,0.1,2.6,0.2,5.3c0,2.6,0.4,2.6,0.4,5.3c0,2.6-0.3,2.6-0.3,5.3c0,2.6,0.1,2.6,0.1,5.3c0,2.6,0,2.6,0,5.3
			c0,2.6-0.1,2.6-0.1,5.3c0,1.8,0,3.5,0,5.3c0,2.6,0.6,2.6,0.6,5.3c0,2.6,0,2.6,0,5.3c0,2.6-0.5,2.6-0.5,5.3c0,2.6,0.5,2.6,0.5,5.3
			c0,2.6-0.3,2.6-0.2,5.3c0,2.6,0.1,2.6,0.1,5.3c0,2.6,0.2,2.6,0.2,5.3c0,2.6-0.1,2.6-0.1,5.3c0,0.9,0.7,1.6,1.5,1.7
			c2.7,0.3,2.6,0.5,5.3,0.7c2.7,0.3,2.7-0.1,5.4,0.1c2.7,0.3,2.6,0.7,5.3,1s2.7-0.2,5.4,0.1c2.7,0.3,2.6,0.6,5.3,0.9
			s2.7,0.1,5.3,0.4c2.7,0.3,2.7,0.3,5.3,0.5c2.7,0.3,2.7,0.4,5.3,0.6c2.7,0.3,2.7-0.3,5.4-0.1c2.7,0.3,2.7,0.3,5.3,0.5
			c2.7,0.3,2.7,0.2,5.3,0.5c2.7,0.3,2.6,0.6,5.3,0.8c0.9,0.1,2-0.6,2.1-1.5c0.4-2.6,0.2-2.6,0.6-5.2c0.4-2.6,0.1-2.7,0.5-5.3
			c0.4-2.6,0.7-2.6,1.1-5.2c0.4-2.6,0-2.7,0.4-5.3c0.4-2.6,1-2.5,1.4-5.1s-0.1-2.7,0.3-5.3c0.1-0.9-0.3-2.1-1.2-2.2
			c-2.5-0.3-2.5-0.2-5-0.5s-2.5,0.1-5-0.2c-2.5-0.3-2.5,0-5-0.3s-2.5-0.4-5-0.7c-2.5-0.3-2.5-0.5-4.9-0.8c-2.5-0.3-2.5-0.5-4.9-0.7
			c-2.5-0.3-2.5,0.2-5-0.1c-2.5-0.3-2.5-0.5-4.9-0.8c-0.9-0.1-1.7-0.9-1.6-1.8c0.4-2.6,0.3-2.6,0.7-5.1c0.4-2.6,0.4-2.5,0.8-5.1
			c0.4-2.6,0.3-2.6,0.7-5.1c0.4-2.6,0.2-2.6,0.6-5.1c0.4-2.6,0.6-2.5,0.9-5.1c0.4-2.6,0.4-2.5,0.8-5.1c0.4-2.6,0.2-2.6,0.5-5.1
			c0.4-2.6,0.6-2.5,1-5.1s0.2-2.6,0.6-5.1c0.4-2.6,0.6-2.5,1-5.1s0.2-2.6,0.6-5.1c0.4-2.6-0.1-2.6,0.3-5.2
			C154,22.1,153.5,21.5,152.5,21.5z"/>
		<path class="st1" d="M233.6,21.2c-2.6,0.2-2.7-0.5-5.3-0.3s-2.6,0.4-5.3,0.6c-2.6,0.2-2.6,0-5.3,0.2c-2.6,0.2-2.6,0.6-5.2,0.8
			c-2.6,0.2-2.6,0.2-5.3,0.3c-2.6,0.2-2.6,0.1-5.3,0.3c-2.6,0.2-2.6,0.4-5.3,0.5c-0.9,0.1-1.7,0.5-1.8,1.4c-0.1,2.7,0.4,2.7,0.3,5.3
			c-0.1,2.7-0.5,2.6-0.6,5.3s0,2.7,0,5.3c-0.1,2.7-0.3,2.6-0.4,5.3c-0.1,2.7,0,2.7-0.1,5.3c-0.1,2.7,0.1,2.7,0,5.3
			c-0.1,2.7-0.1,2.7-0.2,5.3c-0.1,2.7-0.2,2.7-0.3,5.3c-0.1,2.7,0.1,2.7,0,5.3c-0.1,2.7,0.1,2.7,0,5.3c-0.1,2.7,0.1,2.7,0,5.3
			c-0.1,2.7-0.3,2.7-0.3,5.3c-0.1,2.7-0.3,2.7-0.4,5.3c-0.1,2.7,0.4,2.7,0.3,5.3c-0.1,2.7-0.2,2.7-0.3,5.3c-0.1,2.7,0,2.7-0.1,5.3
			c-0.1,2.7-0.6,2.6-0.7,5.3c-0.1,2.7,0.1,2.7,0,5.3c-0.1,2.7,0,2.7-0.1,5.3c-0.1,2.7,0,2.7-0.1,5.3c-0.1,2.7-0.1,2.7-0.1,5.3
			c-0.1,2.7,0.1,2.7,0,5.3c-0.1,2.7-0.3,2.7-0.4,5.3c-0.1,2.7,0.2,2.7,0.2,5.3c-0.1,2.7-0.5,2.6-0.6,5.3s-0.3,2.7-0.4,5.3
			c-0.1,2.7,0,2.7,0,5.3c-0.1,2.7-0.2,2.7-0.3,5.3c-0.1,2.7,0.2,2.7,0.1,5.3c-0.1,2.7,0.3,2.7,0.2,5.3c-0.1,2.7-0.6,2.6-0.7,5.3
			c0,0.9,0.9,1.5,1.8,1.5c2.7,0.2,2.7,0.4,5.4,0.6c2.7,0.2,2.7,0.3,5.4,0.5s2.7-0.2,5.4,0s2.7,0.5,5.4,0.7s2.7,0,5.4,0.1
			c2.7,0.2,2.7-0.1,5.4,0.1c2.7,0.2,2.7,0.8,5.3,1c2.7,0.2,2.7,0,5.4,0.2s2.7,0.3,5.4,0.5s2.7,0,5.4,0.2s2.7,0.1,5.4,0.3
			s2.7,0.3,5.4,0.5s2.7,0.5,5.4,0.7c2.7,0.2,2.7,0.1,5.4,0.3c2.7,0.2,2.7-0.3,5.4-0.1c2.7,0.2,2.7,0.6,5.4,0.8
			c2.7,0.2,2.7,0.1,5.4,0.3c0.9,0.1,1.8-0.7,1.9-1.6c0.2-2.5,0.4-2.5,0.6-4.9c0.2-2.5-0.4-2.5-0.1-5c0.2-2.5,0.2-2.5,0.4-4.9
			c0.2-2.5,0.6-2.4,0.8-4.9c0.2-2.5-0.3-2.5-0.1-5c0.2-2.5,0.7-2.4,0.9-4.9c0.1-0.9-0.7-1.8-1.7-1.9c-2.6-0.2-2.6-0.4-5.2-0.6
			c-2.6-0.2-2.6,0.2-5.3,0c-2.6-0.2-2.6-0.7-5.2-0.9s-2.6-0.1-5.2-0.3s-2.7,0.3-5.3,0.1c-2.6-0.2-2.6-0.6-5.2-0.8
			c-2.6-0.2-2.6-0.3-5.2-0.5c-2.6-0.2-2.6,0.1-5.2-0.2c-2.6-0.2-2.6-0.6-5.2-0.8c-2.6-0.2-2.6-0.4-5.2-0.6c-0.9-0.1-1.4-0.5-1.3-1.4
			c0.1-2.7-0.1-2.7,0-5.4s-0.3-2.7-0.2-5.4s0.4-2.7,0.5-5.4s0.1-2.7,0.2-5.4c0.1-2.7,0-2.7,0.1-5.4s0.2-2.7,0.3-5.4
			c0.1-2.7-0.4-2.7-0.3-5.5c0.1-2.7-0.1-2.7,0-5.4c0.1-2.7,0.2-2.7,0.2-5.4c0.1-2.7,0.1-2.7,0.2-5.4c0.1-2.7,0.5-2.7,0.5-5.4
			c0.1-2.7-0.1-2.7,0-5.4c0.1-2.7,0.1-2.7,0.2-5.4c0.1-2.7,0-2.7,0.1-5.4c0.1-2.7,0.1-2.7,0.2-5.4c0.1-2.7-0.3-2.7-0.2-5.5
			c0.1-2.7,0.2-2.7,0.2-5.4c0.1-2.7,0.1-2.7,0.2-5.4c0.1-2.7,0.3-2.7,0.4-5.4c0.1-2.7,0.2-2.7,0.2-5.4c0.1-2.7-0.5-2.7-0.4-5.5
			c0.1-2.7,0.3-2.7,0.4-5.4c0.1-2.7,0.1-2.7,0.1-5.4c0.1-2.7,0.4-2.7,0.5-5.4s0-2.7,0.1-5.5C235.6,21.7,234.5,21.2,233.6,21.2z"/>
		<path class="st1" d="M353,50.9c-2.6-0.3-2.6-0.4-5.1-0.7c-2.6-0.3-2.6-0.2-5.1-0.6c-2.6-0.3-2.5-0.6-5.1-0.9
			c-2.6-0.3-2.6-0.4-5.1-0.7s-2.6,0.1-5.2-0.2c-1-0.1-1.5,0.4-1.5,1.4c0,1.2,0,3.1-0.1,5.3c0,1.6-0.3,3.3-0.3,5.3
			c-0.1,1.7-0.2,3.4-0.3,5.3c-0.1,1.7-0.5,3.4-0.7,5.3c-0.2,1.7-0.4,3.5-0.6,5.3c-0.2,1.7-0.4,3.5-0.7,5.2c-0.3,1.7-0.1,3.6-0.4,5.3
			c-0.3,1.7-1.2,3.4-1.6,5.1s-0.8,3.4-1.3,5.1s-0.7,3.5-1.3,5.1c-0.6,1.7-1.2,3.4-1.9,4.9c-0.8,1.6-1.7,3.1-2.6,4.6
			c-1,1.5-2.2,2.8-3.4,4c-1.2,1.4-2.3,2.7-3.8,3.6c-1.5,1-2.9,1.9-4.6,2.5c-1.6,0.5-3.4,0.4-5.2,0.4c-1.9,0-3.7,0.1-5.3-0.4
			c-1.8-0.5-3.6-1.1-5-2.1c-1.5-1-2.4-2.7-3.5-4.1c-1-1.4-2.2-2.8-2.9-4.5c-0.7-1.6-1.3-3.3-1.8-5.1c-0.4-1.7-0.7-3.5-0.9-5.3
			c-0.2-1.7-0.1-3.6-0.2-5.4s-0.4-3.6-0.4-5.4s0.2-3.6,0.3-5.4c0.1-1.8-0.1-3.6,0.1-5.4s0.8-3.6,1-5.3c0.2-1.8,0-3.7,0.2-5.4
			c0.3-1.8,0.6-3.6,0.9-5.3c0.3-1.9,0.9-3.6,1.2-5.3c0.4-1.9,0.7-3.7,1.1-5.3c0.5-2.2,1.2-3.9,1.6-5.2c0.3-1-0.8-1.8-1.8-1.8
			c-2-0.2-4-0.3-5.9-0.5c-3-0.3-3-0.2-5.9-0.5c-3-0.3-2.9-1-5.9-1.2c-3-0.3-3,0-6-0.2c-0.8-0.1-1.8,0.4-2,1.2
			c-0.3,1.1-0.4,3-0.9,5.3c-0.4,1.5-1.2,3.2-1.6,5.1c-0.4,1.6-0.6,3.4-1,5.3c-0.3,1.7-0.6,3.4-0.9,5.3c-0.3,1.7-0.6,3.5-0.9,5.3
			c-0.3,1.7-0.8,3.5-1,5.3c-0.2,1.7-0.1,3.6-0.2,5.4c-0.2,1.8-0.7,3.5-0.8,5.3s-0.1,3.6-0.1,5.4s0,3.6,0,5.4s-0.1,3.6,0,5.4
			s0.6,3.5,0.8,5.3s0.3,3.6,0.6,5.3c0.3,1.8,0.7,3.5,1.1,5.2c0.4,1.8,0.8,3.5,1.3,5.2s1.1,3.4,1.7,5.1c0.7,1.7,1.4,3.3,2.2,4.9
			c0.8,1.6,2,3,3,4.4c1,1.5,1.7,3.2,2.9,4.5c1.2,1.3,2.5,2.5,3.9,3.7c1.3,1.1,2.9,2,4.4,3c1.4,0.9,2.9,2,4.5,2.7
			c1.5,0.8,3.2,1.4,4.9,2c1.6,0.6,3.4,0.8,5.2,1.2c1.7,0.4,3.3,1.3,5.1,1.5c1.7,0.2,3.5,0.3,5.3,0.5c1.9,0.1,3.7-0.3,5.4-0.4
			c1.9-0.1,3.6-0.2,5.4-0.4s3.7,0,5.4-0.4c1.8-0.4,3.5-1,5.2-1.7c1.7-0.6,3.2-1.9,4.7-2.7c1.6-0.9,3.3-1.5,4.8-2.5s2.5-2.6,3.9-3.8
			c1.3-1.2,2.9-2.2,4.1-3.6c1.2-1.4,2.4-2.7,3.5-4.2c1-1.5,2-3,3-4.6c0.9-1.5,1.5-3.3,2.3-4.9s1.4-3.3,2.1-5s1.3-3.4,1.9-5.1
			s1.6-3.3,2.1-5s1.1-3.5,1.5-5.2c0.4-1.8,0.6-3.6,0.9-5.4c0.4-1.8,0.6-3.6,0.9-5.4s0.9-3.6,1.2-5.3c0.2-1.8-0.2-3.7,0-5.5
			s0.8-3.6,0.9-5.4c0.1-1.9,0.4-3.7,0.5-5.4c0.1-1.9,0.1-3.7,0.1-5.5c0-1.9-0.3-3.8-0.3-5.5c0-2,0.1-3.9,0.1-5.5
			c-0.1-2.4-0.5-4.3-0.6-5.4C354.1,51.7,353.8,51,353,50.9z"/>
		<path class="st1" d="M13.4,1.7c-0.2,2.9-0.1,2.9-0.3,5.7c-0.2,2.9-0.7,2.8-1,5.7c-0.2,2.9-0.3,2.9-0.5,5.7c0,0.4,0.1,0.7-0.1,0.9
			c-1.9,2.2-1.7,2.4-3.5,4.5c-1.9,2.2-1.8,2.2-3.7,4.4s-1.9,2.2-3.7,4.3c-0.9,1-0.5,2.5,0.9,2.6c2.8,0.2,2.9,0,5.7,0.2
			s2.8,0.3,5.7,0.5c2.8,0.2,2.8,0.6,5.6,0.8c0.4,0,0.5,0.1,0.8,0.4c2.1,1.9,2.1,1.9,4.2,3.8c2.1,1.9,2.2,1.9,4.3,3.8
			c2.1,1.9,2.3,1.8,4.4,3.7c1,0.9,2.8,0.2,2.9-1.2c0.2-2.9,0.1-2.9,0.3-5.7c0.2-2.9,0.3-2.9,0.6-5.7c0.2-2.9,0.3-2.9,0.6-5.7
			c0-0.4-0.1-0.8,0.1-1.1c1.9-2.2,1.9-2.1,3.8-4.3c1.9-2.2,1.7-2.3,3.6-4.4s2.3-1.7,4.2-3.9c0.9-1,0-2.8-1.4-2.9
			c-2.8-0.2-2.8-0.4-5.7-0.6c-2.8-0.2-2.8-0.4-5.6-0.7c-2.8-0.2-2.8-0.1-5.7-0.4c-0.4,0-0.7,0-0.9-0.3c-2.1-1.9-2.2-1.8-4.3-3.7
			s-1.9-2.1-4.1-4c-2.1-1.9-2.1-2-4.2-3.9C15.3-0.5,13.5,0.4,13.4,1.7z"/>
		<path class="st1" d="M345,172.7c-0.1-2.3-0.6-2.3-0.7-4.5c-0.1-2.3-0.2-2.3-0.4-4.6c-0.1-2.3,0-2.3-0.2-4.6
			c-0.1-1.4-1.4-1.9-2.5-1c-1.7,1.5-2,1.1-3.7,2.6s-1.8,1.5-3.5,2.9c-1.7,1.5-1.4,1.9-3.1,3.4c-0.3,0.2-0.8,0.1-1.1,0.1
			c-2.3,0.1-2.3-0.1-4.5,0c-2.3,0.1-2.3,0.1-4.5,0.3c-2.3,0.1-2.2,0.5-4.5,0.7c-1.4,0.1-2,1.7-1.2,2.7c1.5,1.7,1.5,1.7,3,3.4
			s1.2,2,2.7,3.7s1.8,1.5,3.2,3.2c0.2,0.3,0.1,0.7,0.1,1.1c0.1,2.3,0.1,2.3,0.3,4.6c0.1,2.3,0,2.3,0.2,4.6c0.1,2.3,0.3,2.3,0.4,4.6
			c0.1,1.4,1.9,2.2,3,1.3c1.7-1.5,1.6-1.7,3.3-3.2c1.7-1.5,1.9-1.3,3.6-2.7c1.7-1.5,1.5-1.7,3.2-3.2c0.3-0.2,0.7-0.5,1-0.5
			c2.3-0.1,2.3,0.3,4.5,0.2c2.3-0.1,2.3-0.2,4.5-0.3c2.3-0.1,2.2-0.4,4.5-0.5c1.4-0.1,2.2-1.8,1.3-2.9c-1.5-1.7-1.7-1.6-3.1-3.3
			c-1.5-1.7-1.6-1.6-3.1-3.4c-1.5-1.7-1.4-1.8-2.9-3.5C344.8,173.5,345,173.1,345,172.7z"/>
	</g>
</g>
</svg>
