<svg width="66" height="32" viewBox="0 0 66 32" fill="none" xmlns="http://www.w3.org/2000/svg">
<path fill-rule="evenodd" clip-rule="evenodd" d="M5.40708 0H0V6.07913H5.40708V0ZM13.8454 27.455H8.38354C7.54433 27.455 6.90128 27.2742 6.45609 26.9126C6.00749 26.5476 5.67999 26.1143 5.47019 25.6129C5.26039 25.108 5.13417 24.586 5.09323 24.0402C5.05059 23.4944 5.03012 23.0543 5.03012 22.72V10.1865H0.293381V22.72C0.293381 25.3468 0.997837 27.455 2.41016 29.0481C3.82078 30.6413 5.91027 31.4395 8.67692 31.4395H18.6231V1.17352H13.8454L13.8454 27.455ZM24.9103 1.17352H29.6897V31.4395H24.9103V1.17352ZM40.7563 1.17352H35.9769V31.4395H40.7563V1.17352ZM64.3991 28.2738C64.4537 29.2119 64.6225 30.0989 64.9023 30.9347L65.1104 31.4395H61.2128L61.0866 31.3133C60.7523 30.921 60.4862 30.4468 60.29 29.8873C60.0939 29.3279 59.9557 28.7991 59.8704 28.2942H59.4525L56.4761 31.3133C56.0838 31.3679 55.7341 31.4122 55.4271 31.4395C55.12 31.4668 54.7704 31.4805 54.3798 31.4805C52.8975 31.4805 51.6268 31.2451 50.5658 30.7675C49.5032 30.2933 48.6367 29.6417 47.9663 28.8196C47.296 27.994 46.7996 27.032 46.4772 25.9267C46.1566 24.8214 45.9962 23.6547 45.9962 22.4266V9.89308H50.7739V22.4266C50.7739 23.8253 51.144 24.9749 51.886 25.8858C52.6263 26.7932 53.7504 27.2469 55.2599 27.2469C56.853 27.2469 57.9635 26.8068 58.5929 25.9267C59.2223 25.0466 59.5361 23.8799 59.5361 22.4266V9.93402H64.3155V25.5276C64.3155 26.4214 64.3428 27.339 64.3991 28.2738Z" fill="black"/>
</svg>
