<svg width="1646" height="1545" viewBox="0 0 1646 1545" fill="none" xmlns="http://www.w3.org/2000/svg">
<path d="M698.895 1213.18C679.801 1114.61 750.607 889.479 788.396 789.233C800.993 795.195 906.407 774.66 940.219 725.642C967.27 686.427 1013.21 671.025 1035.69 664.037C1065.52 654.763 1115.25 656.088 1124.53 678.61L1134.47 701.795C1166.96 795.195 1138.67 937.172 1118.56 1000.54L1044.31 1013.79C988.086 922.644 1016.9 811.535 1038.34 767.374C1015.53 798.11 951.491 830.523 922.32 842.888C920.993 924.366 796.353 1205.23 769.171 1223.11C747.426 1237.42 713.26 1222.45 698.895 1213.18Z" fill="black"/>
<path d="M746.515 1229.41L737.232 1246.28M708.055 1218.72L690.343 1265.49L688.824 1269.5C687.139 1273.55 685.971 1280.34 688.824 1286.13C690.836 1290.21 694.848 1293.79 702.088 1295.56C719.593 1299.83 785.419 1304.47 816.143 1306.25C821.449 1306.92 831.529 1304.38 829.405 1288.88C827.283 1273.37 816.143 1259.19 803.545 1253.47C793.324 1248.82 766.971 1241.61 737.232 1246.28L708.055 1218.72ZM727.948 1248.12C731.07 1247.37 734.169 1246.76 737.232 1246.28L727.948 1248.12Z" stroke="black" stroke-width="10" stroke-linecap="round"/>
<path d="M1054.89 1010.2C1054.23 1029.85 1056.02 1068.55 1060.88 1074.46C1066.86 1081.75 1074.17 1082.41 1118.7 1068.5C1154.33 1057.37 1168.56 1057.24 1177.2 1055.91C1183.18 1054.99 1190.49 1054.19 1190.49 1039.35C1190.49 1020.8 1183.18 1008.21 1160.58 1005.56C1142.5 1003.44 1116.71 1014.39 1106.08 1020.13V1002.24" stroke="black" stroke-width="10" stroke-linecap="round"/>
<path d="M969.818 343.309C901.54 350.208 767.372 379.29 776.918 440.415C778.382 445.606 782.586 453.887 790.424 461.677C797.973 469.179 808.893 476.227 823.983 479.617" stroke="black" stroke-width="10" stroke-linecap="round"/>
<path d="M790.426 461.678C811.776 494.898 874.364 567.054 953.91 589.909" stroke="black" stroke-width="10" stroke-linecap="round"/>
<path d="M953.398 589.909C958.261 583.376 971.04 571.57 986.042 571.01" stroke="black" stroke-width="10" stroke-linecap="round"/>
<path d="M986.04 571.009C985.597 552.354 969.86 504.245 910.445 461.053" stroke="black" stroke-width="10" stroke-linecap="round"/>
<path d="M893.266 476.517C899.432 466.533 918.375 445.339 944.808 440.438" stroke="black" stroke-width="10" stroke-linecap="round"/>
<path d="M1041.02 457.617C1043.88 461.002 1049.61 470.207 1049.61 479.952" stroke="black" stroke-width="10" stroke-linecap="round"/>
<path d="M1040.34 600.236C1053.88 599.575 1082.16 597.588 1086.95 594.939C1092.95 591.63 1094.28 591.63 1094.28 585.009C1094.28 578.389 1040.34 589.644 1040.34 568.459C1045.23 563.603 1053.13 552.702 1045.67 547.935C1038.21 543.169 1022.59 556.984 1015.71 564.486C1008.6 571.989 992.668 583.818 985.742 571.106" stroke="black" stroke-width="10" stroke-linecap="round"/>
<path d="M955.114 589.645C961.107 607.078 982.681 638.369 1021.03 624.069C1059.39 609.77 1060.99 602.223 1056.99 600.236" stroke="black" stroke-width="10" stroke-linecap="round"/>
<path d="M1285.43 597.062C1294.75 594.514 1315.12 582.665 1322.05 555.64C1328.97 528.616 1319.6 528.484 1314.06 531.795" stroke="black" stroke-width="10" stroke-linecap="round"/>
<path d="M1250.81 577.499C1253.7 562.485 1263.86 533.518 1281.44 537.757" stroke="black" stroke-width="10" stroke-linecap="round"/>
<path d="M1258.14 552.99C1245.89 542.923 1238.39 566.017 1236.17 578.823C1222.32 583.062 1217.08 603.11 1216.2 612.604C1248.24 615.891 1271.01 607.285 1285.43 597.062C1294.26 590.803 1299.96 583.938 1302.74 578.823C1309.62 560.498 1319.65 522.258 1304.74 515.899C1289.82 509.54 1285.65 523.847 1285.43 531.795C1287.03 549.812 1277.66 569.771 1272.78 577.499" stroke="black" stroke-width="10" stroke-linecap="round"/>
<path d="M1065.07 600.02C1093.92 626.955 1164.53 667.182 1216.19 612.604" stroke="black" stroke-width="10" stroke-linecap="round"/>
<path d="M1059.92 603.652C1059.92 616.158 1056.82 644.661 1044.45 658.631" stroke="black" stroke-width="10" stroke-linecap="round"/>
<path d="M790.181 632.861C762.955 669.611 724.838 752.671 790.181 790.924" stroke="black" stroke-width="10" stroke-linecap="round"/>
<path d="M1604.54 474.798L1620.01 449.027" stroke="black" stroke-width="10" stroke-linecap="round"/>
<path d="M1612.1 488.27L1640.62 486.943" stroke="black" stroke-width="10" stroke-linecap="round"/>
<path d="M1606.26 504.006L1623.44 526.341" stroke="black" stroke-width="10" stroke-linecap="round"/>
<path d="M1044.66 1313.23H580.575V1540" stroke="black" stroke-opacity="0.2" stroke-width="10" stroke-linecap="round"/>
<path d="M1367.32 1087.12H987.56V1363.62" stroke="black" stroke-opacity="0.2" stroke-width="10" stroke-linecap="round"/>
<path d="M1618.29 770.166H1310.23V1139.5" stroke="black" stroke-opacity="0.2" stroke-width="10" stroke-linecap="round"/>
<path d="M1563.85 528.918V821.888" stroke="black" stroke-opacity="0.2" stroke-width="10" stroke-linecap="round"/>
<path d="M1563.85 426.691V451.603" stroke="black" stroke-width="10" stroke-linecap="round"/>
<path d="M962.058 606.292L581.724 650.041C537.727 614.795 548.374 562.175 559.196 540.272L823.574 508.582" stroke="black" stroke-width="10" stroke-linecap="round"/>
<path d="M1092.59 595.729L1223.12 583.186" stroke="black" stroke-width="10" stroke-linecap="round"/>
<path d="M1318.53 569.321L1404.01 563.378L1518.64 511.42C1504.86 496.789 1512.42 483.756 1518.16 479.093L1404.01 452.463L952.117 490.095" stroke="black" stroke-width="10" stroke-linecap="round"/>
<path d="M518.241 540.818L556.985 536.648C530.114 596.846 560.916 637.8 580.578 653.735L535.358 660.349C497.562 614.319 507.305 562.806 518.241 540.818Z" fill="black"/>
<path d="M1522.76 514.315C1508.38 499.306 1516.46 481.431 1522.46 475.658L1577.06 489.133L1522.76 514.315Z" fill="black"/>
<path d="M1405.25 452.463C1390.99 470.568 1371.02 517.908 1405.25 562.419" stroke="black" stroke-width="10"/>
<path d="M1076.78 354.901C1088.14 347.907 1173.63 354.649 1190.25 247.113C1218.71 247.447 1234.18 224.138 1212.47 214.162C1189.32 202.227 1191.06 180.315 1195.26 167.404C1201.92 150.472 1202.33 132.695 1200.89 128.977" stroke="black" stroke-width="10" stroke-linecap="round"/>
<path d="M1165.17 208.282C1168.4 208.319 1171.06 204.424 1171.12 199.58C1171.18 194.737 1168.6 190.78 1165.37 190.742C1162.15 190.704 1159.48 194.6 1159.43 199.443C1159.37 204.287 1161.94 208.244 1165.17 208.282Z" fill="black"/>
<path d="M1149.3 172.789C1154.04 167.713 1166.32 160.29 1177.44 171.194" stroke="black" stroke-width="10" stroke-linecap="round"/>
<path d="M1117.05 271.604C1125.77 285.03 1135.35 288.843 1153.96 280.178" stroke="black" stroke-width="10" stroke-linecap="round"/>
<path d="M1045.62 177.494C1043.6 181.934 1041.9 192.012 1051.3 196.809" stroke="black" stroke-width="10" stroke-linecap="round"/>
<path d="M945.466 131.906C934.394 192.477 969.034 238.072 994.147 273.124C1020.97 258.634 1064.93 224.177 1048.07 220.457C1030.35 216.548 1011.66 168.213 1028.87 153.428C1049.05 136.08 1067.25 162.328 1070.72 182.23L1086.98 154.108C1082.39 134.439 1080.58 99.9362 1110.16 119.279C1139.73 138.621 1183.11 133.554 1201.1 128.603C1236.58 103.209 1291.7 43.9762 1228.36 10.1975C1175.67 -17.8971 1107.12 17.622 1065.27 49.5379C1036.93 42.0576 960.561 49.3194 945.466 131.906Z" fill="black"/>
<path d="M996.117 269.066C1008.92 284.484 1015.29 297.287 1014.49 323.809" stroke="black" stroke-width="10" stroke-linecap="round"/>
<path d="M981.87 359.317C977.386 343.675 974.759 313.843 1000.12 319.641C1031.82 326.888 1096.43 358.236 1091.7 375.613" stroke="black" stroke-width="10" stroke-linecap="round"/>
<path d="M1091.7 400.062C1114.89 421.538 1120.05 435.283 1123.48 461.054" stroke="black" stroke-width="10" stroke-linecap="round"/>
<path d="M5.02295 1096.66C36.53 1093.79 110.772 1112.58 160.366 1209.2C161.663 1211.73 165.321 1211.8 166.613 1209.27C217.483 1109.68 279.918 1008.66 477.262 1130.29C480.296 1132.16 484.277 1128.78 482.773 1125.54C450.755 1056.68 433.453 925.358 582.651 860.207C585.644 858.901 585.512 854.453 582.378 853.536L543.785 842.257C540.248 841.223 540.633 836.369 544.304 836.037C584.06 832.455 640.147 834.79 620.837 858.247C598.293 885.633 592.749 902.949 598.245 931.541" stroke="black" stroke-opacity="0.2" stroke-width="10" stroke-linecap="round"/>
</svg>
