<svg width="1586" height="1545" viewBox="0 0 1586 1545" fill="none" xmlns="http://www.w3.org/2000/svg">
<path d="M2.42372 1503.83C-14.2032 1489.09 59.6729 1490.18 96.1355 1489.5C101.386 1496.87 105.251 1497.01 114.731 1498.71C119.107 1509.98 19.0506 1518.58 2.42372 1503.83Z" fill="black" fill-opacity="0.2"/>
<path d="M570.916 389.377C567.534 401.613 565.015 441.375 578.292 474.002" stroke="black" stroke-width="10" stroke-linecap="round"/>
<path d="M699.804 179.829C730.759 204.2 778.804 256.805 732.106 278.205C729.368 279.458 727.857 282.493 728.637 285.386C737.825 319.409 736.372 389.665 665.096 437.242C664.035 437.948 663.219 439 662.833 440.21L648.814 484.076" stroke="black" stroke-width="10" stroke-linecap="round"/>
<path d="M669.165 359.153C668.065 363.989 670.922 373.983 691.127 375.272" stroke="black" stroke-width="10" stroke-linecap="round"/>
<path d="M560.159 481.999C591.67 470.707 651.676 456.889 651.676 495.949V502.728C651.676 507.305 656.904 509.897 660.52 507.094" stroke="black" stroke-opacity="0.2" stroke-width="10" stroke-linecap="round"/>
<path d="M660.519 507.094C711.105 467.9 814.033 389.376 850.301 329.938" stroke="black" stroke-width="10" stroke-linecap="round"/>
<path d="M723.363 232.216C723.363 242.812 720.159 252.13 715.315 258.639C710.471 265.144 704.337 268.484 698.177 268.484C692.018 268.484 685.884 265.144 681.04 258.639C676.195 252.13 672.991 242.812 672.991 232.216C672.991 221.62 676.195 212.302 681.04 205.794C685.884 199.288 692.018 195.948 698.177 195.948C704.337 195.948 710.471 199.288 715.315 205.794C720.159 212.302 723.363 221.62 723.363 232.216Z" stroke="black" stroke-width="10" stroke-linecap="round"/>
<path d="M606.502 264.454L668.963 242.29" stroke="black" stroke-width="10" stroke-linecap="round"/>
<path d="M654.858 222.141C656.449 215.426 662.304 199.977 672.992 191.918" stroke="black" stroke-width="10" stroke-linecap="round"/>
<path d="M701.199 238.26C705.65 238.26 709.259 235.554 709.259 232.216C709.259 228.877 705.65 226.171 701.199 226.171C696.748 226.171 693.14 228.877 693.14 232.216C693.14 235.554 696.748 238.26 701.199 238.26Z" fill="black"/>
<path d="M731.89 640.821C772.368 617.452 868.839 527.799 930.897 356.131" stroke="black" stroke-width="10" stroke-linecap="round"/>
<path d="M673.793 899.14C670.083 859.53 667.114 772.126 684.927 739.375C702.739 706.622 719.853 659.773 731.891 640.82" stroke="black" stroke-opacity="0.2" stroke-width="10" stroke-linecap="round"/>
<path d="M560.159 480.047L328.448 752.056" stroke="black" stroke-opacity="0.2" stroke-width="10" stroke-linecap="round"/>
<path d="M328.448 752.89C345.627 750.569 390.285 751.695 431.509 774.777C483.041 803.628 537.6 854.37 672.993 899.141" stroke="black" stroke-opacity="0.2" stroke-width="10" stroke-linecap="round"/>
<path d="M672.993 899.141L626.65 931.379" stroke="black" stroke-opacity="0.2" stroke-width="10" stroke-linecap="round"/>
<path d="M328.474 752.055C325.335 761.784 322.219 784.477 348.596 812.501" stroke="black" stroke-opacity="0.2" stroke-width="10" stroke-linecap="round"/>
<path d="M497.699 554.598C460.202 585.831 365.122 651.724 284.772 665.428C266.025 673.151 233.752 694.846 254.642 719.832C275.533 744.821 289.461 775.248 293.814 787.337C297.162 798.422 305.496 813.875 325.583 778.409" stroke="black" stroke-opacity="0.2" stroke-width="10" stroke-linecap="round"/>
<path d="M261.957 729.891C246.391 739.07 210.091 756.61 189.423 753.345C168.756 750.083 154.978 758.786 150.672 763.545C148.354 767.284 146.896 774.966 159.615 775.782C172.333 776.599 187.436 776.122 193.398 775.782" stroke="black" stroke-opacity="0.2" stroke-width="10" stroke-linecap="round"/>
<path d="M209.571 762.129C202.599 769.941 178.894 787.696 139.851 796.219C132.215 797.639 121.923 805.805 135.867 815.394C147.819 822.851 180.886 816.033 197.619 805.805" stroke="black" stroke-opacity="0.2" stroke-width="10" stroke-linecap="round"/>
<path d="M197.437 804.441C184.631 810.888 161.581 828.051 171.825 845.145C175.109 848.538 188.965 848.808 218.122 822.757L239.793 804.441" stroke="black" stroke-opacity="0.2" stroke-width="10" stroke-linecap="round"/>
<path d="M240.877 804.83L218.751 823.312C212.381 840.084 202.659 880.816 228.809 858.225C247.918 838.715 243.895 822.082 251.941 817.151C259.986 812.223 278.089 793.194 286.135 784.293" stroke="black" stroke-opacity="0.2" stroke-width="10" stroke-linecap="round"/>
<path d="M241.825 772.203C239.145 780.497 237.001 799.767 249.866 810.486" stroke="black" stroke-opacity="0.2" stroke-width="10" stroke-linecap="round"/>
<path d="M485.608 1451.22C498.283 1447.86 523.831 1430.87 524.631 1389.77C525.433 1348.66 542.309 1277.94 550.645 1247.72L632.695 885.037" stroke="black" stroke-opacity="0.2" stroke-width="10" stroke-linecap="round"/>
<path d="M662.916 300.722C665.142 300.722 666.946 299.369 666.946 297.7C666.946 296.031 665.142 294.678 662.916 294.678C660.691 294.678 658.887 296.031 658.887 297.7C658.887 299.369 660.691 300.722 662.916 300.722Z" fill="black"/>
<path d="M676.014 312.811C677.683 312.811 679.036 311.909 679.036 310.796C679.036 309.683 677.683 308.781 676.014 308.781C674.344 308.781 672.991 309.683 672.991 310.796C672.991 311.909 674.344 312.811 676.014 312.811Z" fill="black"/>
<path d="M646.799 320.871C647.912 320.871 648.814 319.067 648.814 316.841C648.814 314.616 647.912 312.812 646.799 312.812C645.686 312.812 644.784 314.616 644.784 316.841C644.784 319.067 645.686 320.871 646.799 320.871Z" fill="black"/>
<path d="M349.091 271.849C398.058 180.834 471.172 169.391 501.611 175.045C564.826 78.241 652.125 46.3063 705.306 75.248C747.852 98.4003 713 156.749 690.255 183.03L668.181 151.095C652.928 180.635 609.313 169.723 587.905 163.07C606.3 201.658 635.668 301.391 573.856 391.608C512.048 481.825 434.382 483.42 395.246 457.474C359.124 431.86 300.124 362.866 349.091 271.849Z" fill="black"/>
<path d="M324.417 1463.31C331.096 1473.76 353.341 1493.49 388.893 1488.79" stroke="black" stroke-opacity="0.2" stroke-width="10" stroke-linecap="round"/>
<path d="M380.414 758.1C367.808 794.162 308.742 868.29 255.983 961.453C220.81 1019.89 136.925 1150.38 82.7723 1204.88C75.4724 1215.23 68.6367 1238.73 99.6952 1249.95C123.586 1259.97 134.337 1283.21 137.523 1308.05C141.505 1339.11 192.273 1362.15 226.119 1339.11C253.096 1320.74 330.665 1188.46 389.268 1113.72C404.189 1094.68 417.879 1079.38 429.193 1070.64" stroke="black" stroke-opacity="0.2" stroke-width="10" stroke-linecap="round"/>
<path d="M390.715 1114.73L324.417 1463.31C358.115 1454.32 450.683 1437.34 507.771 1437.34" stroke="black" stroke-opacity="0.2" stroke-width="10" stroke-linecap="round"/>
<path d="M60.7386 1434.5C5.81955 1328.04 56.729 1257.2 84.2626 1239.66C126.945 1253.08 128.099 1297.83 135.02 1319.09L119.045 1362.83C108.356 1381.65 114.591 1418.45 119.045 1434.5C137.509 1508.85 109.642 1516 95.9657 1496.09L60.7386 1434.5Z" fill="black"/>
<path d="M353.553 1532.12C335.054 1517.47 371.642 1511.79 408.768 1509.65C421.702 1521.21 507.61 1525.16 511.802 1527.84C472.279 1540.69 369.765 1544.95 353.553 1532.12Z" fill="black" fill-opacity="0.2"/>
<path d="M539.369 1525.85C399.108 1545.08 369.999 1489.6 372.976 1457.17C397.099 1447.1 463.43 1443.43 494.699 1441.14C485.764 1462.21 496.932 1459.46 504.749 1465.18C514.802 1472.05 542.719 1480.44 558.353 1481.21C628.707 1484.64 573.616 1520.89 539.369 1525.85Z" fill="black"/>
<path d="M869.772 152.58C876.198 148.886 889.45 147.543 891.062 171.721" stroke="black" stroke-width="10" stroke-linecap="round"/>
<path d="M856.807 217.057C857.478 207.655 856.807 186.229 848.747 175.752C838.673 162.655 836.658 137.469 856.807 139.484C863.202 140.124 867.272 145.438 869.77 152.581C873.569 163.439 873.736 178.524 872.926 187.841" stroke="black" stroke-width="10" stroke-linecap="round"/>
<path d="M844.141 243.249C843.325 234.182 839.882 213.228 832.628 201.944C823.561 187.841 822.554 151.573 841.695 155.603" stroke="black" stroke-width="10" stroke-linecap="round"/>
<path d="M856.808 311.756C851.771 311.756 841.092 306.92 838.674 287.577C836.256 268.235 827.592 256.012 823.562 252.317C821.211 246.609 818.727 234.788 827.592 233.176C832.813 232.227 838.986 237.286 844.142 243.25L852.778 255.339" stroke="black" stroke-width="10" stroke-linecap="round"/>
<path d="M903.148 222.094C905.5 217.729 907.783 206.579 898.111 196.908C886.022 184.819 889.044 173.737 896.096 170.714C903.148 167.692 913.223 169.707 923.297 199.93C933.372 226.123 948.282 292.614 931.357 349.031" stroke="black" stroke-width="10" stroke-linecap="round"/>
<path d="M949.171 64.4566L964.98 35.7178" stroke="black" stroke-width="10" stroke-linecap="round"/>
<path d="M812.479 78.0303L840.688 96.1642" stroke="black" stroke-width="10" stroke-linecap="round"/>
<path d="M863.663 5L891.259 68.4504" stroke="black" stroke-width="10" stroke-linecap="round"/>
<path d="M961.34 151.614C961.34 130.461 966.26 95.1502 991.847 127.13C1007.59 150.115 1013.5 195.886 1001.69 219.071" stroke="black" stroke-width="10" stroke-linecap="round"/>
<path d="M909.183 171.102C905.903 159.443 904.263 137.723 923.944 144.119L945.594 188.091" stroke="black" stroke-width="10" stroke-linecap="round"/>
<path d="M945.596 188.091L923.946 144.119C922.306 131.128 930.835 110.141 951.502 127.13L961.343 151.615L971.183 176.099" stroke="black" stroke-width="10" stroke-linecap="round"/>
<path d="M971.657 250.302C966.283 262.057 960.575 288.786 980.724 301.681" stroke="black" stroke-width="10" stroke-linecap="round"/>
<path d="M996.843 233.175C1001.54 219.744 1015.78 193.08 1035.13 193.886C1054.47 194.692 1039.16 220.079 1035.13 229.146L1006.92 284.555C1000.87 299.666 991.806 326.867 1012.96 358.098C1034.12 386.306 1107.07 458.842 1185.65 470.931" stroke="black" stroke-width="10" stroke-linecap="round"/>
<path d="M1171.13 892.041C1177.17 913.534 1199.34 963.368 1239.63 990.77M1108.67 856.78L1188.25 879.952L1108.67 856.78ZM1184.22 920.249C1192.96 891.704 1204.17 820.916 1179.19 766.111C1147.96 697.605 1128.82 609.958 1143.93 551.526C1156.02 504.781 1200.01 497.795 1220.49 500.147C1252.73 503.846 1308.34 542.459 1305.12 647.233C1301.09 778.2 1270.86 890.026 1227.54 976.666L1184.22 920.249Z" stroke="black" stroke-opacity="0.2" stroke-width="10" stroke-linecap="round"/>
<path d="M1151.99 967.599C1151.99 916.22 1151.65 879.952 1145.94 865.848C1223.31 894.862 1317.21 887.34 1354.48 879.952C1355.49 882.303 1363.75 904.735 1388.73 975.659C1419.96 1064.31 1397.8 1360.5 1388.73 1393.75C1379.67 1426.99 1355.49 1428 1320.23 1423.97C1292.02 1420.75 1254.74 1343.37 1239.63 1305.09C1169.11 1173.12 1151.99 1027.89 1151.99 967.599Z" fill="black"/>
<path d="M1425.54 699.689C1435.54 724.205 1458.14 786.531 1468.62 839.724C1439.74 860.209 1358.51 899.092 1261.8 887.003L1108.67 856.78C1102.62 806.073 1101.91 676.921 1142.21 561.67C1142.21 551.261 1152.79 522.108 1176.17 509.213" stroke="black" stroke-opacity="0.2" stroke-width="10" stroke-linecap="round"/>
<path d="M1416.94 787.266C1416.51 780.799 1428.45 733.737 1425.55 699.69C1423.93 680.703 1421.85 657.016 1419.26 628.161C1412 547.566 1383.32 485.778 1369.89 464.956C1356.46 444.136 1324.68 431.64 1299.49 440.707" stroke="black" stroke-opacity="0.2" stroke-width="10" stroke-linecap="round"/>
<path d="M1397.6 1327.16C1406.29 1138.21 1367.77 959.673 1346.42 890.025C1400.27 882.757 1442.69 859.481 1458.25 851.742C1473.88 910.692 1496.76 1062.03 1506.17 1131.34C1529.62 1207.25 1524.62 1316.4 1519.2 1361.48C1522.67 1388.94 1500.38 1399.84 1488.8 1401.86C1427.13 1422.05 1402.31 1360.47 1397.6 1327.16Z" fill="black"/>
<path d="M907.179 167.692C924.305 195.229 949.693 261.988 930.35 357.09C932.028 377.576 961.923 445.314 984.752 475.968C1020.01 523.318 1093.56 576.712 1138.89 591.824" stroke="black" stroke-width="10" stroke-linecap="round"/>
<path d="M1219.75 455.244C1206.42 447.041 1106.17 454.947 1086.67 328.834C1053.3 329.225 1035.16 301.889 1060.62 290.191C1087.76 276.193 1085.73 250.496 1080.81 235.354C1072.99 215.497 1072.52 194.649 1074.2 190.288" stroke="black" stroke-width="10" stroke-linecap="round"/>
<path d="M1114.36 283.504C1109.59 283.56 1105.66 277.808 1105.58 270.657C1105.49 263.505 1109.29 257.663 1114.06 257.607C1118.83 257.551 1122.76 263.303 1122.84 270.454C1122.93 277.605 1119.13 283.448 1114.36 283.504Z" fill="black"/>
<path d="M1134.71 241.666C1129.14 235.716 1114.74 227.01 1101.7 239.798" stroke="black" stroke-width="10" stroke-linecap="round"/>
<path d="M1172.53 357.556C1162.29 373.302 1151.06 377.773 1129.24 367.612" stroke="black" stroke-width="10" stroke-linecap="round"/>
<path d="M1256.3 247.187C1258.67 252.393 1260.65 264.212 1249.63 269.838" stroke="black" stroke-width="10" stroke-linecap="round"/>
<path d="M1373.75 193.723C1386.73 264.758 1346.11 318.231 1316.66 359.338C1285.2 342.345 1233.65 301.935 1253.42 297.572C1274.21 292.989 1296.12 236.304 1275.94 218.964C1252.26 198.619 1230.92 229.401 1226.86 252.741L1207.78 219.762C1213.18 196.694 1215.29 156.23 1180.61 178.915C1145.93 201.598 1095.05 195.656 1073.95 189.85C1032.34 160.069 967.701 90.6028 1041.99 50.9884C1103.77 18.0403 1184.17 59.6957 1233.25 97.1253C1266.48 88.3528 1356.05 96.869 1373.75 193.723Z" fill="black"/>
<path d="M1314.35 354.58C1299.33 372.662 1291.87 387.676 1292.8 418.78" stroke="black" stroke-width="10" stroke-linecap="round"/>
<path d="M1407.61 1544.34C1282.69 1549.38 1223.25 1524.32 1223.25 1507.07C1223.25 1500.02 1219.22 1492.96 1247.43 1482.89C1235.34 1499.35 1239.77 1530.64 1354.22 1524.19C1372.69 1525.2 1414.26 1520.37 1432.8 1492.96H1441.87C1532.54 1469.79 1585.93 1488.81 1585.93 1506.06C1585.93 1523.31 1511.38 1540.16 1407.61 1544.34Z" fill="black" fill-opacity="0.2"/>
<path d="M1431.03 1492.52C1498.5 1498.97 1507.01 1444.84 1502.83 1416.96" stroke="black" stroke-opacity="0.2" stroke-width="10" stroke-linecap="round"/>
<path d="M1341.64 1443.16C1341.64 1447.52 1340.64 1457.06 1336.61 1460.28C1331.57 1464.31 1240.9 1454.24 1242.92 1499.57C1241.91 1505.96 1251.98 1515.69 1276.16 1518.72C1310.17 1522.97 1407.65 1535.38 1431.03 1492.52C1432.39 1490.03 1433.5 1487.34 1434.33 1484.46L1443.4 1446.18" stroke="black" stroke-opacity="0.2" stroke-width="10" stroke-linecap="round"/>
</svg>
