<svg width="534" height="506" viewBox="0 0 534 506" fill="none" xmlns="http://www.w3.org/2000/svg">
<path d="M251.617 459.825C258.73 461.479 278.911 462.604 282.882 449.899" stroke="#131011" stroke-width="5" stroke-linecap="round"/>
<path d="M262.038 432.033C273.949 443.448 292.807 461.81 302.732 446.922L308.687 436.996" stroke="#131011" stroke-width="5" stroke-linecap="round"/>
<path d="M262.038 401.265C275.603 414.168 317.223 445.135 335.486 434.019C338.794 431.868 345.511 424.986 345.908 414.664" stroke="#131011" stroke-width="5" stroke-linecap="round"/>
<path d="M294.792 383.895C311.5 396.964 348.389 420.321 362.285 409.205C376.18 398.089 361.788 382.737 352.856 376.451L292.807 327.817" stroke="#131011" stroke-width="5" stroke-linecap="round"/>
<path d="M122.09 336.75C129.534 340.66 137.747 350.801 140.452 360.074C143.926 371.985 153.686 382.241 157.821 385.384" stroke="#131011" stroke-width="5" stroke-linecap="round"/>
<path d="M270.971 270.249C261.045 266.279 233.254 258.24 211.418 261.813C189.583 265.386 191.568 258.339 181.146 252.383L122.09 216.156" stroke="#131011" stroke-width="5" stroke-linecap="round"/>
<path d="M350.374 267.272L372.21 255.857M369.729 395.806C378.86 393.424 394.046 379.925 400.497 373.474L425.807 360.074" stroke="#131011" stroke-width="5" stroke-linecap="round"/>
<path d="M352.359 320.373C337.802 329.14 301.343 339.926 271.963 316.899" stroke="#131011" stroke-width="5" stroke-linecap="round"/>
<path d="M271.963 316.899C261.045 332.283 235.438 361.663 220.351 356.104C205.265 350.546 212.08 334.269 217.374 326.824C232.758 296.056 280.896 241.069 350.374 267.272" stroke="#131011" stroke-width="5" stroke-linecap="round"/>
<path d="M252.609 441.958C252.212 456.648 247.481 462.967 245.165 464.29C233.875 470.742 221.344 460.817 224.841 452.749C227.242 448.28 230.458 439.061 231.766 435.011C234.81 425.581 253.006 427.269 252.609 441.958Z" stroke="#131011" stroke-width="5" stroke-linecap="round"/>
<path d="M211.419 455.854C194.744 459.427 194.546 442.455 201.99 434.018C204.375 431.315 210.327 425.759 217.87 419.627C225.414 413.494 230.277 418.725 231.766 422.108C233.732 426.574 228.093 452.281 211.419 455.854Z" stroke="#131011" stroke-width="5" stroke-linecap="round"/>
<path d="M183.627 436.003C165.364 435.606 166.258 419.627 173.702 412.679C179.492 406.558 194.247 395.21 206.952 398.783C219.656 402.356 216.877 414.168 213.9 420.123C211.418 425.582 201.89 436.4 183.627 436.003Z" stroke="#131011" stroke-width="5" stroke-linecap="round"/>
<path d="M189.583 380.917C170.129 376.153 153.686 387.865 147.896 394.317C143.926 399.478 144.257 405.4 144.919 407.716C149.683 419.627 171.717 411.024 182.139 405.235C192.726 399.114 209.037 385.681 189.583 380.917Z" stroke="#131011" stroke-width="5" stroke-linecap="round"/>
<path d="M216.381 202.26C219.359 208.877 224.421 225.188 220.848 237.495" stroke="#131011" stroke-width="5" stroke-linecap="round"/>
<path d="M234.743 214.667C235.57 218.306 237.225 227.074 237.225 233.029" stroke="#131011" stroke-width="5" stroke-linecap="round"/>
<path d="M296.777 179.432L308.191 219.63" stroke="#131011" stroke-width="5" stroke-linecap="round"/>
<path d="M329.034 197.298L325.561 221.119" stroke="#131011" stroke-width="5" stroke-linecap="round"/>
<path d="M359.804 214.667L342.434 228.066" stroke="#131011" stroke-width="5" stroke-linecap="round"/>
<circle cx="16.3844" cy="258.339" r="15.3844" fill="#131011"/>
<path d="M41.6686 259.653C67.6944 256.974 108.531 260.142 113.358 280.274C118.185 300.405 99.7538 307.768 89.9349 308.934C52.5525 314.875 2.98486 312.079 2.98486 280.274" stroke="#131011" stroke-width="5" stroke-linecap="round"/>
<circle cx="32.2651" cy="287.122" r="2.95897" stroke="#131011" stroke-width="5"/>
<path d="M61.0301 287.122C61.0301 288.556 59.6924 290.081 57.5749 290.081C55.4574 290.081 54.1196 288.556 54.1196 287.122C54.1196 285.689 55.4574 284.163 57.5749 284.163C59.6924 284.163 61.0301 285.689 61.0301 287.122Z" stroke="#131011" stroke-width="5"/>
<circle cx="82.8848" cy="287.122" r="2.95897" stroke="#131011" stroke-width="5"/>
<circle cx="448.139" cy="443.944" r="14.3918" fill="#131011"/>
<path d="M471.54 433.522C480.267 433.522 505.207 433.522 516.938 433.522C526.44 433.522 531.015 435.624 531.015 450.338C531.015 464.634 530.898 483.151 531.015 490.625C531.097 495.88 528.481 501.695 519.753 502.536C511.025 503.377 475.997 502.886 459.573 502.536C453.473 502.536 442.68 499.077 442.681 485.02L442.681 469.255" stroke="#131011" stroke-width="5" stroke-linecap="round"/>
<path d="M465.509 458.336L487.345 473.224" stroke="#131011" stroke-width="5" stroke-linecap="round"/>
<path d="M487.345 473.224L527.046 436.5" stroke="#131011" stroke-width="5" stroke-linecap="round"/>
<path d="M457.568 486.127L473.575 464.291M497.408 464.291L519.106 486.127" stroke="#131011" stroke-width="5" stroke-linecap="round"/>
<path d="M455.34 201.312L403.727 240.518C338.22 290.641 402.238 346.885 426.059 359.622L501.989 310.988" stroke="#131011" stroke-width="5" stroke-linecap="round"/>
<path d="M235.636 74.4629C243.08 73.4704 259.06 67.8129 263.427 53.1233" stroke="#131011" stroke-width="5" stroke-linecap="round"/>
<path d="M211.318 62.5524C216.281 62.7178 227.695 60.2695 233.651 49.1531" stroke="#131011" stroke-width="5" stroke-linecap="round"/>
<path d="M188.986 44.6867C196.927 43.0377 214.197 37.9018 219.755 30.5508" stroke="#131011" stroke-width="5" stroke-linecap="round"/>
<path d="M260.79 99.4221C210.898 110.555 164.382 60.8996 145.914 32.6761C145.205 31.5924 145.733 30.1543 146.96 29.7425L225.491 3.40614C226.23 3.15848 227.041 3.36099 227.585 3.91807C253.732 30.6738 302.29 42.4719 327.914 45.6999C329.739 45.9298 330.379 48.3027 328.899 49.3944L261.534 99.0828C261.313 99.2455 261.058 99.3624 260.79 99.4221Z" stroke="#131011" stroke-width="5" stroke-linecap="round"/>
</svg>
