<svg width="584" height="506" viewBox="0 0 584 506" fill="none" xmlns="http://www.w3.org/2000/svg">
<path d="M243.5 427.862C249.478 345.161 239.913 184.341 153.824 202.675C67.7341 221.008 64.147 324.568 73.1147 374.057C81.0859 402.952 126.721 389.601 90.0535 296.337" stroke="black" stroke-width="5" stroke-linecap="round"/>
<path d="M60.1613 286.373C35.9155 285.708 -20.708 310.88 13.3303 395.977C57.172 505.583 282.36 568.355 348.123 395.977" stroke="black" stroke-width="5" stroke-linecap="round"/>
<path d="M406.91 343.168C389.971 323.24 371.04 343.168 353.104 323.24V373.5C356.293 381.471 363.782 373.5 368.05 370.071L406.91 343.168Z" fill="black"/>
<path d="M443.777 316.265L361.011 375.384C357.701 377.748 353.104 375.383 353.104 371.316V262.459" stroke="black" stroke-width="5" stroke-linecap="round"/>
<path d="M393.957 239.542L458.723 109.013" stroke="black" stroke-width="5" stroke-linecap="round"/>
<path d="M492.601 111.006L418.867 261.463" stroke="black" stroke-width="5" stroke-linecap="round"/>
<path d="M516.515 140.898L452.745 269.434" stroke="black" stroke-width="5" stroke-linecap="round"/>
<path d="M433.813 97.0562L356.07 255.496C355.691 256.267 356.398 257.141 357.239 256.963C369.737 254.318 391.141 255.712 392.869 279.575C392.926 280.358 393.808 280.833 394.479 280.425C405.484 273.735 424.335 268.885 423.927 296.029C423.914 296.901 424.942 297.437 425.638 296.912C435.376 289.566 451.442 283.263 452.691 305.686C452.751 306.758 454.293 307.136 454.766 306.172L535.447 141.894" stroke="black" stroke-width="5" stroke-linecap="round"/>
<path d="M525.482 4.3905C492.003 -1.18937 476.326 11.3653 472.673 18.3402L452.526 57.6752C452.178 58.355 452.668 59.1608 453.432 59.1463C480.889 58.627 537.007 68.8195 554.495 106.991C554.853 107.771 555.973 107.815 556.357 107.048L561.353 97.0562L581.107 56.5602C581.219 56.3311 581.243 56.0782 581.165 55.8354C576.343 40.7499 558.689 9.92496 525.482 4.3905Z" fill="black" stroke="black" stroke-width="5" stroke-linecap="round"/>
<path d="M554.378 110.01L538.776 139.377C538.333 140.212 537.038 140.047 536.774 139.14C531.474 120.912 505.132 88.3814 440.387 87.1169C439.656 87.1027 439.158 86.337 439.474 85.6776L450.752 62.1821" stroke="black" stroke-width="5" stroke-linecap="round"/>
<path d="M456.73 75.136C470.348 73.1433 505.355 76.7306 536.443 107.021" stroke="black" stroke-width="5" stroke-linecap="round"/>
</svg>
